<svg width="50" height="50" viewBox="0 0 50 50" fill="none" xmlns="http://www.w3.org/2000/svg">
<path d="M25 0C18.3696 0 12.0107 2.63392 7.32233 7.32233C2.63392 12.0107 0 18.3696 0 25C0 31.6304 2.63392 37.9893 7.32233 42.6777C12.0107 47.3661 18.3696 50 25 50C31.6304 50 37.9893 47.3661 42.6777 42.6777C47.3661 37.9893 50 31.6304 50 25C50 18.3696 47.3661 12.0107 42.6777 7.32233C37.9893 2.63392 31.6304 0 25 0ZM19.6375 14.8333C21.0528 14.8419 22.4545 15.1102 23.7729 15.625V18.0854C22.3403 17.2894 20.7241 16.8828 19.0854 16.9062C18.0651 16.8723 17.0494 17.0568 16.1062 17.4474C15.1631 17.8379 14.3143 18.4255 13.6167 19.1708C12.1543 20.8385 11.3982 23.0097 11.5083 25.225C11.3993 27.3199 12.1048 29.3759 13.4771 30.9625C14.1347 31.6692 14.9371 32.2254 15.8296 32.5933C16.722 32.9611 17.6834 33.1318 18.6479 33.0938C20.4485 33.1385 22.2259 32.6811 23.7812 31.7729L23.7729 34.0229C22.0722 34.8504 20.1943 35.2474 18.3042 35.1792C17.0554 35.2338 15.8094 35.0211 14.6496 34.555C13.4898 34.089 12.4429 33.3806 11.5792 32.4771C9.842 30.5305 8.93569 27.9813 9.05417 25.375C8.99385 23.9775 9.21444 22.582 9.70289 21.2713C10.1913 19.9605 10.9377 18.761 11.8979 17.7437C12.8359 16.7837 13.9638 16.0299 15.2097 15.5305C16.4556 15.0311 17.7919 14.7972 19.1333 14.8437C19.2166 14.8401 19.3 14.8373 19.3833 14.8354C19.4681 14.8345 19.5528 14.8324 19.6375 14.8333ZM31.8521 15.1562H33.5938L32.4375 20.6812H35.8979L37.0792 15.1562H38.7667L37.6104 20.6812L41.2188 20.6729L40.9062 22.125H37.3125L36.4542 26.25H40.3125L39.9458 27.7042H36.1625L34.9542 33.1729H33.225L34.4062 27.7042H30.9687L29.8125 33.1729H28.125L29.2812 27.7042H25.6562L25.9292 26.25H29.5708L30.4062 22.1333H26.6021L26.8896 20.6812H30.6937L31.8521 15.1562ZM32.1479 22.125L31.25 26.25H34.7354L35.6167 22.125H32.1479Z" fill="white"/>
</svg>
