<svg width="50" height="50" viewBox="0 0 50 50" fill="none" xmlns="http://www.w3.org/2000/svg">
<g clip-path="url(#clip0_5_177)">
<path d="M24.9695 49.8737L4.62148 45.8679L0.0869141 9.80138H49.9131L45.3738 45.8623L24.9695 49.8737Z" fill="#264DE4"/>
<path d="M41.4877 43.5661L45.3666 12.7503H25V46.8075L41.4877 43.5661Z" fill="#2965F1"/>
<path d="M10.4822 26.1269L11.0412 30.5503H25V26.1269H10.4822ZM9.35876 17.1738L9.92576 21.5972H25V17.1738H9.35876ZM25 37.615L24.9726 37.6201L18.0258 36.2899L17.5816 32.762H11.3199L12.1937 39.7075L24.9713 42.2227L25 42.2172V37.615Z" fill="#EBEBEB"/>
<path d="M11.8132 0H19.3679V2.24044H14.9726V4.48089H19.3683V6.72119H11.8132V0ZM20.8791 0H28.4339V1.9482H24.0384V2.33781H28.4339V6.8187H20.8792V4.77285H25.2748V4.38324H20.8789L20.8791 0ZM29.9451 0H37.5V1.9482H33.1044V2.33781H37.5V6.8187H29.9451V4.77285H34.3406V4.38324H29.9453V0H29.9451Z" fill="white"/>
<path d="M39.4779 26.1269L40.6039 17.1738H24.9785V21.5972H33.7679L33.2003 26.1269H24.9785V30.5503H32.6595L31.9353 36.2871L24.9783 37.6187V42.2206L37.766 39.7075L37.8597 38.9601L39.3257 27.3147L39.4779 26.1269Z" fill="white"/>
</g>
<defs>
<clipPath id="clip0_5_177">
<rect width="50" height="50" fill="white"/>
</clipPath>
</defs>
</svg>
