<svg width="50" height="50" viewBox="0 0 50 50" fill="none" xmlns="http://www.w3.org/2000/svg">
<g clip-path="url(#clip0_5_103)">
<path d="M38.2812 0H11.7188C5.24666 0 0 5.24666 0 11.7188V38.2812C0 44.7533 5.24666 50 11.7188 50H38.2812C44.7533 50 50 44.7533 50 38.2812V11.7188C50 5.24666 44.7533 0 38.2812 0Z" fill="#2396ED"/>
<path d="M30.1068 24.524H34.1531V20.8631H30.1068V24.524ZM25.29 24.524H29.3361V20.8631H25.29V24.524ZM20.5693 24.524H24.6156V20.8631H20.5693V24.524ZM15.8486 24.524H19.7988V20.8631H15.8488L15.8486 24.524ZM11.0318 24.524H15.0781V20.8631H11.0318V24.524ZM15.8488 20.0924H19.7986V16.4316H15.8488V20.0924ZM20.5695 20.0924H24.6156V16.4316H20.5693L20.5695 20.0924ZM25.29 20.0924H29.3361V16.4316H25.29V20.0924ZM25.29 15.6607H29.3361V12H25.29V15.6609V15.6607ZM47.0625 22.8865C47.0625 22.8865 45.3283 21.2486 41.7639 21.8268C41.3785 19.0328 38.392 17.3951 38.392 17.3951C38.392 17.3951 35.5982 20.767 37.6213 24.5242C37.0434 24.8133 36.0799 25.1986 34.6348 25.1986H8.14179C7.65996 27.0291 7.65996 39.1676 20.9547 39.1676C30.4922 39.1676 37.6213 34.7361 40.9932 26.6436C46.0027 27.0289 47.0625 22.8865 47.0625 22.8865Z" fill="white"/>
</g>
<defs>
<clipPath id="clip0_5_103">
<rect width="50" height="50" rx="25" fill="white"/>
</clipPath>
</defs>
</svg>
