<svg width="50" height="50" viewBox="0 0 50 50" fill="none" xmlns="http://www.w3.org/2000/svg">
<g clip-path="url(#clip0_5_88)">
<path d="M0 0H50V50H0V0Z" fill="#512BD4"/>
<path d="M8.91151 31.9443C8.558 31.9443 8.25761 31.8266 8.01014 31.591C7.76268 31.3494 7.63885 31.0623 7.63885 30.7301C7.63885 30.3918 7.76268 30.102 8.00995 29.8602C8.25761 29.6186 8.558 29.4977 8.91151 29.4977C9.27089 29.4977 9.5744 29.6186 9.82186 29.8602C10.0754 30.102 10.2019 30.3918 10.2019 30.7301C10.2019 31.0623 10.0754 31.3492 9.82186 31.591C9.5744 31.8266 9.27108 31.9445 8.91171 31.9445L8.91151 31.9443ZM23.0445 31.7451H20.7467L14.6924 22.1934C14.5412 21.9558 14.4139 21.704 14.3123 21.4414H14.2592L14.2683 21.501L14.2767 21.5693L14.2846 21.6461L14.292 21.7312L14.3016 21.875L14.3098 22.0375L14.3166 22.2191L14.3221 22.4199L14.326 22.6396L14.3279 22.7969L14.3299 23.2266V31.7449H12.2971V18.75H14.7453L20.5963 28.0748L20.7408 28.3031L20.834 28.4531L20.9137 28.585L20.9801 28.6988L21.0172 28.7648L21.0484 28.8227L21.0738 28.8725H21.109L21.1023 28.8314L21.0898 28.7436L21.0781 28.6473L21.0678 28.5424C21.0661 28.5238 21.0646 28.5053 21.0631 28.4867L21.0541 28.3691L21.0463 28.2432L21.0394 28.1084L21.0312 27.8908L21.0254 27.6541L21.0219 27.3982L21.0207 27.1234V18.75H23.0445V31.7451ZM32.9439 31.7451H25.8291V18.75H32.6611V20.5807H27.9326V24.2598H32.29V26.0812H27.9326V29.9236H32.9439V31.7451ZM43.0557 20.5807H39.4141V31.7451H37.3105V20.5807H33.6777V18.75H43.0555V20.5807H43.0557Z" fill="white"/>
</g>
<defs>
<clipPath id="clip0_5_88">
<rect width="50" height="50" rx="25" fill="white"/>
</clipPath>
</defs>
</svg>
