<svg width="50" height="50" viewBox="0 0 50 50" fill="none" xmlns="http://www.w3.org/2000/svg">
<g clip-path="url(#clip0_5_171)">
<path d="M49.9131 9.80138L45.3738 45.8623L24.9695 49.8737L4.62148 45.8679L0.0869141 9.80138H49.9131Z" fill="#E44D26"/>
<path d="M25 46.8075L41.4877 43.5661L45.3666 12.7503H25V46.8075Z" fill="#F16529"/>
<path d="M16.1758 21.5972H25V17.1738H9.35876L9.50798 18.3605L11.0412 30.5503H25V26.1269H16.7459L16.1758 21.5972ZM17.5816 32.762H11.3199L12.1937 39.7075L24.9713 42.2227L25 42.2172V37.615L24.9726 37.6201L18.0258 36.2899L17.5816 32.762Z" fill="#EBEBEB"/>
<path d="M4.72266 0H7.89258V2.22091H10.7924V0H13.9625V6.72548H10.7926V4.47341H7.89277V6.72548H4.72285L4.72266 0ZM18.1309 2.23033H15.3406V0H24.0934V2.23033H21.3014V6.72548H18.1314V2.23033H18.1309ZM25.4824 0H28.7877L30.8209 2.36316L32.8521 0H36.1588V6.72548H33.0018V3.39197L30.8209 5.78324H30.7662L28.584 3.39197V6.72548H25.4824V0ZM37.7363 0H40.9072V4.50249H45.365V6.72548H37.7361V0H37.7363Z" fill="white"/>
<path d="M24.9785 30.5503H32.6595L31.9353 36.2871L24.9783 37.6187V42.2206L37.766 39.7075L37.8597 38.9601L39.3257 27.3147L39.4779 26.1269H24.9785V30.5503ZM24.9785 21.5864V21.5972H40.0455L40.1705 20.603L40.4548 18.3605L40.6039 17.1738H24.9785V21.5864Z" fill="white"/>
</g>
<defs>
<clipPath id="clip0_5_171">
<rect width="50" height="50" fill="white"/>
</clipPath>
</defs>
</svg>
