<svg width="50" height="50" viewBox="0 0 50 50" fill="none" xmlns="http://www.w3.org/2000/svg">
<g clip-path="url(#clip0_5_162)">
<path d="M-4 -6H50V57H-4V-6Z" fill="#F2D511"/>
<path d="M41.0457 29.0538C40.6875 26.8229 39.2328 24.9491 34.9238 23.2018C33.427 22.5139 31.7582 22.0213 31.2609 20.887C31.0844 20.2268 31.0609 19.8549 31.1727 19.4553C31.4934 18.1585 33.0414 17.7542 34.2684 18.126C35.0586 18.3909 35.8066 18.9999 36.2578 19.9713C38.368 18.6049 38.3637 18.6139 39.8371 17.6749C39.2977 16.8385 39.0098 16.4526 38.6566 16.0948C37.3875 14.6772 35.6582 13.9471 32.8926 14.003L31.452 14.1893C30.0715 14.5381 28.7559 15.2627 27.9844 16.2342C25.6695 18.8608 26.3297 23.4577 29.1465 25.3495C31.9215 27.4323 35.998 27.9061 36.5188 29.8538C37.0254 32.2381 34.7664 33.01 32.5211 32.7358C30.8664 32.3917 29.9461 31.5506 28.9512 30.0213C27.1199 31.0811 27.1199 31.0811 25.2371 32.1639C25.6836 33.1401 26.1527 33.5819 26.9012 34.4276C30.4434 38.0206 39.3074 37.844 40.8973 32.4057C40.9617 32.219 41.3898 30.9737 41.0457 29.0538ZM22.7312 14.2909H18.1574L18.1387 26.1159C18.1387 28.6307 18.2688 30.9362 17.8598 31.6428C17.1906 33.0327 15.4566 32.8604 14.6664 32.5909C13.8621 32.1956 13.4531 31.6334 12.9793 30.8389C12.8492 30.6108 12.7516 30.4342 12.7188 30.4206L9 32.6979C9.61836 33.967 10.5293 35.0686 11.6961 35.7842C13.4391 36.8303 15.7816 37.151 18.2316 36.5885C19.8262 36.1241 21.202 35.162 21.9223 33.6975C22.9637 31.7776 22.7402 29.4538 22.7309 26.8835C22.7543 22.6901 22.7312 18.4975 22.7312 14.2909Z" fill="#323330"/>
</g>
<defs>
<clipPath id="clip0_5_162">
<rect width="50" height="50" rx="25" fill="white"/>
</clipPath>
</defs>
</svg>
