<svg width="50" height="50" viewBox="0 0 50 50" fill="none" xmlns="http://www.w3.org/2000/svg">
<path d="M33.5891 29.7168C33.8359 27.6613 33.7621 27.3598 35.293 27.6926L35.6816 27.7269C36.859 27.7805 38.3992 27.5375 39.3035 27.1172C41.2512 26.2137 42.4059 24.7043 40.4855 25.1008C36.1047 26.0043 35.8035 24.5215 35.8035 24.5215C40.4297 17.6578 42.3637 8.94531 40.6945 6.81249C36.1422 0.995307 28.2617 3.74609 28.1297 3.81757L28.0875 3.82578C27.2219 3.6457 26.2535 3.53867 25.1652 3.52109C23.1828 3.48867 21.6785 4.04101 20.5375 4.90624C20.5375 4.90624 6.4793 -0.885552 7.13321 12.1898C7.27227 14.9715 11.1203 33.2375 15.7098 27.7203C17.3871 25.7031 19.0082 23.9973 19.0082 23.9973C19.8133 24.532 20.777 24.8047 21.7879 24.7066L21.866 24.6402C21.8418 24.8906 21.8523 25.1355 21.8977 25.4254C20.7152 26.7469 21.0629 26.9789 18.6988 27.4652C16.3074 27.9582 17.7125 28.8355 18.6293 29.0648C19.7418 29.3434 22.3141 29.7375 24.0527 27.3035L23.9836 27.5812C24.4477 27.9523 24.416 30.248 24.4816 31.8883C24.5473 33.5285 24.6574 35.059 24.9918 35.9621C25.3262 36.8644 25.7207 39.1891 28.8273 38.5234C31.4234 37.9664 33.4082 37.1656 33.5891 29.7168Z" fill="black"/>
<path d="M27.8156 40.1445C26.4414 40.1445 25.5469 39.6133 25.0031 39.1C24.1828 38.3262 23.8574 37.3289 23.6633 36.7332L23.5793 36.4844C23.1879 35.4277 23.0555 33.9066 22.977 31.948C22.9654 31.6419 22.9556 31.3356 22.9477 31.0293C22.941 30.7945 22.9328 30.5 22.9211 30.191C22.426 30.4271 21.9006 30.5933 21.3598 30.6848C20.391 30.8504 19.3496 30.7965 18.2637 30.525C17.4977 30.3336 16.7016 29.9367 16.2481 29.3234C14.9258 30.4816 13.6645 30.3242 12.9774 30.0953C11.7652 29.691 10.6805 28.5555 9.66056 26.6227C8.93439 25.2465 8.23166 23.4527 7.57189 21.2922C6.42345 17.5293 5.69377 13.566 5.62892 12.2652C5.42502 8.19219 6.52111 5.27969 8.88673 3.60899C12.6192 0.97266 18.2735 2.52266 20.3348 3.22657C21.7195 2.3918 23.3488 1.98516 25.1902 2.01485C26.1793 2.03086 27.1207 2.11797 27.9953 2.27344C28.9074 1.98672 30.7098 1.575 32.7727 1.60039C36.5735 1.64571 39.7231 3.12696 41.8805 5.88399C43.4199 7.85117 42.659 11.9816 42.068 14.2691C41.2371 17.4859 39.7805 20.9082 37.9914 23.8871C38.4774 23.8906 39.1809 23.832 40.1817 23.6258C42.1559 23.218 42.7328 24.2766 42.8895 24.7504C43.5172 26.6516 40.7887 28.0879 39.9375 28.4828C38.8469 28.9895 37.0692 29.2977 35.6129 29.2309L35.5492 29.2266L35.1668 29.193L35.1289 29.5117L35.0926 29.8238C34.9949 33.5988 34.4555 35.9895 33.3457 37.5695C32.1828 39.2254 30.566 39.6898 29.1422 39.9949C28.7066 40.0916 28.2619 40.1417 27.8156 40.1445ZM24.9242 26.4047C25.8113 27.1145 25.8891 28.45 25.9582 30.9461C25.9668 31.2574 25.975 31.5523 25.986 31.8277C26.0195 32.6613 26.0981 34.6137 26.4035 35.4387C26.4469 35.5551 26.4856 35.6738 26.5262 35.7988C26.8668 36.8426 27.0379 37.3656 28.511 37.05C29.7481 36.7852 30.3836 36.5473 30.8813 35.8387C31.6047 34.8082 32.0094 32.7367 32.0836 29.6797L33.5883 29.7164L32.0938 29.5371L32.1375 29.1641C32.2809 27.9344 32.384 27.0453 33.2063 26.4578C33.8656 25.9863 34.6176 26.032 35.2164 26.1398C34.5586 25.6434 34.3766 25.0598 34.3281 24.8207L34.2027 24.2027L34.5551 23.6793C36.5863 20.6652 38.2617 16.9609 39.1516 13.516C40.0656 9.97618 39.7867 8.0961 39.5082 7.74063C35.8184 3.02539 29.4188 4.97188 28.7508 5.19336L28.6375 5.2543L28.0711 5.36016L27.7809 5.3C26.9813 5.13399 26.093 5.04219 25.1402 5.02657C23.6438 5.00157 22.4367 5.35508 21.4469 6.10625L20.7602 6.62696L19.9629 6.29844C18.2606 5.60235 13.259 4.20274 10.6199 6.07188C9.15509 7.10938 8.48791 9.14258 8.63634 12.1148C8.68517 13.0961 9.35236 16.8105 10.4516 20.4137C11.9715 25.3926 13.3527 27.0461 13.9293 27.2387C14.0297 27.2727 14.291 27.0695 14.5508 26.7578C16.2406 24.7254 17.8477 23.0313 17.9152 22.9598L18.7867 22.043L19.8402 22.743C20.2649 23.0254 20.7332 23.1852 21.2145 23.2152L23.7274 21.0723L23.3633 24.7871C23.3551 24.8707 23.3512 24.984 23.384 25.1949L23.4934 25.8992L23.0195 26.4297L22.9649 26.491L24.3453 27.1285L24.9242 26.4047Z" fill="black"/>
<path d="M40.4868 25.1008C36.1055 26.0043 35.8043 24.5211 35.8043 24.5211C40.4301 17.6574 42.3637 8.94453 40.695 6.81211C36.1422 0.994922 28.2617 3.74609 28.1301 3.81758L28.0875 3.825C27.2219 3.6457 26.2535 3.53867 25.1649 3.52109C23.1825 3.48867 21.6785 4.04063 20.5375 4.90586C20.5375 4.90586 6.47894 -0.885546 7.13284 12.1898C7.2719 14.9715 11.12 33.2375 15.7094 27.7203C17.3867 25.7031 19.0075 23.9973 19.0075 23.9973C19.8125 24.532 20.7762 24.8047 21.7867 24.7066L21.8653 24.6402C21.841 24.8906 21.852 25.1355 21.8965 25.4254C20.7145 26.7469 21.0614 26.9789 18.6981 27.4652C16.3063 27.9582 17.7114 28.8355 18.6289 29.0648C19.741 29.3434 22.3137 29.7375 24.052 27.3035L23.9825 27.5813C24.4457 27.9523 24.7711 29.9949 24.7164 31.8465C24.6617 33.698 24.6254 34.9691 24.9907 35.9621C25.3559 36.9547 25.7196 39.1891 28.8266 38.5234C31.4227 37.9668 32.768 36.525 32.9555 34.1203C33.0883 32.4105 33.3887 32.6633 33.4078 31.1344L33.6492 30.4105C33.927 28.0926 33.6934 27.3449 35.293 27.693L35.6817 27.727C36.859 27.7809 38.3996 27.5375 39.3039 27.1172C41.2516 26.2133 42.4067 24.7043 40.4868 25.1008Z" fill="#336791"/>
<path d="M27.9727 39.2164C25.3824 39.2168 24.5621 37.1656 24.2262 36.327C23.7352 35.098 23.6289 30.3277 23.7383 26.4156C23.7456 26.285 23.8036 26.1624 23.8998 26.0739C23.9961 25.9853 24.1232 25.9378 24.2539 25.9415C24.3847 25.9451 24.5089 25.9997 24.6001 26.0935C24.6912 26.1873 24.7422 26.3129 24.7422 26.4437C24.616 30.9559 24.7953 35.0445 25.1586 35.9539C25.7262 37.3727 26.5867 38.6137 29.0207 38.0926C31.3313 37.5969 32.1965 36.7207 32.5817 34.4871C32.8778 32.7727 33.4621 27.8957 33.534 26.9332C33.5439 26.8004 33.6061 26.677 33.707 26.5902C33.8079 26.5033 33.9391 26.46 34.0719 26.4699C34.2047 26.4798 34.3281 26.542 34.4149 26.6429C34.5018 26.7438 34.5451 26.875 34.5352 27.0078C34.4602 28.0094 33.8781 32.8773 33.5707 34.6578C33.1156 37.2965 31.9395 38.4934 29.2309 39.0742C28.8176 39.1656 28.3959 39.2132 27.9727 39.2164ZM13.9293 29.1988C13.703 29.1986 13.4781 29.1615 13.2637 29.0891C11.5813 28.5277 9.97893 25.7879 8.5008 20.9449C7.3758 17.2582 6.66291 13.4105 6.60041 12.1601C6.41486 8.45312 7.36994 5.83007 9.4383 4.36445C13.5305 1.46484 20.4149 4.22617 20.7059 4.34492C20.828 4.39603 20.925 4.49331 20.9757 4.61559C21.0265 4.73788 21.0268 4.87525 20.9768 4.9978C20.9267 5.12036 20.8302 5.21817 20.7084 5.26994C20.5865 5.32171 20.4492 5.32324 20.3262 5.27421V5.2746C20.2598 5.24726 13.6582 2.60273 10.0168 5.18515C8.24807 6.43945 7.43596 8.76913 7.60275 12.1105C7.65549 13.1637 8.3215 16.9195 9.46096 20.6523C10.7805 24.9754 12.2824 27.7039 13.5813 28.1367C13.7848 28.2051 14.4051 28.4117 15.2926 27.3453C16.9613 25.3375 18.4946 23.7352 18.5098 23.7191C18.6031 23.6287 18.7279 23.5779 18.8579 23.5776C18.9879 23.5772 19.113 23.6272 19.2069 23.7172C19.3007 23.8071 19.3561 23.9299 19.3613 24.0598C19.3665 24.1897 19.3212 24.3165 19.2348 24.4137C19.2196 24.4293 17.7098 26.0078 16.0645 27.9871C15.2852 28.9238 14.5379 29.1988 13.9293 29.1988ZM35.7731 24.9687C35.6819 24.9689 35.5924 24.9442 35.5143 24.8973C35.4361 24.8504 35.3722 24.7831 35.3294 24.7026C35.2867 24.6221 35.2666 24.5314 35.2715 24.4404C35.2764 24.3494 35.3059 24.2614 35.3571 24.1859C40.0332 17.2469 41.6746 8.86288 40.2688 7.06679C38.4992 4.80585 36.0004 3.6246 32.8422 3.55702C30.5035 3.50624 28.6446 4.10351 28.341 4.20781L28.2649 4.23867C27.9594 4.33476 27.725 4.16718 27.6367 3.97148C27.5864 3.85935 27.5788 3.7327 27.6154 3.61537C27.6519 3.49804 27.7301 3.3981 27.8352 3.33437L27.9703 3.2789L27.9637 3.28085L27.9707 3.27851C28.4867 3.08984 30.3738 2.52343 32.7117 2.55038C36.2067 2.5871 39.0934 3.93515 41.0598 6.44765C41.9903 7.63671 41.9922 10.3762 41.0656 13.9633C40.1211 17.6203 38.3438 21.5512 36.1899 24.7473C36.1439 24.8156 36.0819 24.8716 36.0092 24.9102C35.9365 24.9488 35.8554 24.9689 35.7731 24.9687ZM36.0117 28.1809C35.2133 28.1809 34.4977 28.0687 34.0692 27.8117C33.6285 27.548 33.5446 27.1891 33.5336 26.9988C33.4133 24.8879 34.5781 24.5203 35.1723 24.3527C35.0895 24.2277 34.9715 24.0805 34.85 23.9285C34.5035 23.4957 34.0293 22.9027 33.6637 22.016C33.6067 21.8777 33.427 21.5555 33.2192 21.1828C32.093 19.1637 29.75 14.9617 31.2551 12.8098C31.952 11.8141 33.3387 11.4223 35.3824 11.641C34.7813 9.80937 31.918 4.07929 25.125 3.96796C23.0817 3.93359 21.4059 4.5621 20.1469 5.8332C17.3278 8.68046 17.4301 13.832 17.4313 13.8832C17.433 13.9491 17.4217 14.0147 17.3981 14.0762C17.3745 14.1377 17.3389 14.194 17.2936 14.2418C17.2482 14.2896 17.1938 14.328 17.1336 14.3548C17.0734 14.3816 17.0085 14.3963 16.9426 14.398C16.8767 14.3998 16.8111 14.3885 16.7496 14.3649C16.6881 14.3412 16.6318 14.3057 16.584 14.2603C16.5362 14.215 16.4978 14.1606 16.471 14.1004C16.4442 14.0402 16.4295 13.9753 16.4278 13.9094C16.4215 13.6809 16.316 8.27499 19.4336 5.12656C20.8926 3.65312 22.8129 2.92577 25.1414 2.96367C29.4883 3.03515 32.2856 5.24452 33.8672 7.08593C35.5906 9.09218 36.436 11.3055 36.5055 12.0437C36.5574 12.593 36.1633 12.7031 36.0836 12.7191L35.9028 12.7234C33.8969 12.4023 32.6102 12.625 32.0781 13.3855C30.9332 15.0215 33.1496 18.9961 34.0961 20.6937C34.3379 21.1266 34.5121 21.4394 34.5918 21.6328C34.9028 22.3867 35.3082 22.8934 35.634 23.3004C35.9203 23.6586 36.1688 23.9687 36.2578 24.3336C36.2988 24.4059 36.884 25.2707 40.3547 24.5543C41.2246 24.375 41.7461 24.5285 41.9055 25.0105C42.2192 25.9594 40.4594 27.0656 39.4852 27.5184C38.611 27.9242 37.2176 28.1809 36.0117 28.1809ZM34.5348 26.916C34.6446 27.0273 35.1953 27.2187 36.3363 27.1699C37.3504 27.1262 38.4203 26.9055 39.0625 26.6078C39.8836 26.2266 40.4313 25.8004 40.7153 25.5094L40.5574 25.5383C38.3383 25.9965 36.7688 25.9355 35.8926 25.3566C35.8336 25.3178 35.7769 25.2757 35.7227 25.2305C35.6278 25.268 35.5399 25.2926 35.4774 25.3102C34.9801 25.4496 34.466 25.5937 34.5348 26.916ZM20.2 29.7203C19.6489 29.7203 19.0688 29.6457 18.4762 29.4969C17.8625 29.3434 16.8274 28.8812 16.8434 28.1223C16.861 27.2703 18.0996 27.0148 18.5664 26.9187C20.2508 26.5719 20.3606 26.4328 20.8871 25.7644C21.0406 25.5695 21.2317 25.327 21.4918 25.0359C21.8785 24.6035 22.3012 24.384 22.7481 24.384C23.059 24.384 23.3145 24.4898 23.4828 24.5594C24.0203 24.782 24.4688 25.3203 24.6531 25.9648C24.8196 26.5461 24.7403 27.1055 24.4297 27.5398C23.411 28.9668 21.9485 29.7203 20.2 29.7203ZM17.9278 28.1656C18.0793 28.2824 18.3824 28.4387 18.7196 28.5234C19.2328 28.6516 19.7305 28.7168 20.2 28.7168C21.6305 28.7168 22.7785 28.1242 23.6129 26.9566C23.7867 26.7129 23.7348 26.4039 23.6883 26.241C23.5906 25.9004 23.3485 25.5906 23.0988 25.4867C22.9633 25.4305 22.8512 25.3875 22.7481 25.3875C22.6926 25.3875 22.5242 25.3875 22.2403 25.7051C22.0004 25.973 21.8281 26.1918 21.6754 26.3852C21.0199 27.2176 20.7196 27.5 18.7688 27.9019C18.293 28.0004 18.0488 28.0996 17.9278 28.1656ZM21.7879 25.85C21.6681 25.8498 21.5523 25.8068 21.4614 25.7287C21.3705 25.6506 21.3105 25.5426 21.2922 25.4242C21.2794 25.3409 21.271 25.2569 21.2672 25.1727C19.9883 25.1484 18.7547 24.6 17.8184 23.6227C16.6344 22.3871 16.0953 20.6754 16.3399 18.9266C16.6055 17.0273 16.5063 15.3508 16.4528 14.45C16.4394 14.2647 16.4312 14.0791 16.4281 13.8934C16.4289 13.7348 16.4321 13.3133 17.8403 12.5996C18.341 12.3457 19.3453 11.9027 20.4422 11.7891C22.2602 11.6016 23.4582 12.4109 23.8168 14.0687C24.7848 18.5453 23.8934 20.5254 23.2426 21.9711C23.1211 22.2398 23.0067 22.4945 22.9153 22.7406L22.8344 22.9582C22.4906 23.8801 22.1934 24.6766 22.2848 25.2719C22.3049 25.4035 22.2719 25.5377 22.1932 25.645C22.1145 25.7524 21.9964 25.8241 21.8649 25.8445L21.7879 25.85ZM17.4352 14.032L17.4551 14.3906C17.5106 15.3262 17.6137 17.0676 17.334 19.066C17.1324 20.5082 17.5731 21.9164 18.543 22.9285C19.3094 23.7285 20.3188 24.1699 21.3559 24.1699H21.3774C21.4938 23.6805 21.6863 23.1641 21.8938 22.6074L21.9742 22.3914C22.0778 22.1133 22.1988 21.8441 22.327 21.5594C22.9535 20.1672 23.7332 18.4344 22.8352 14.2809C22.6571 13.4586 22.2258 12.9824 21.5168 12.8254C20.0606 12.5035 17.8906 13.5988 17.4352 14.032ZM20.4649 13.8191C20.4399 13.9965 20.7903 14.4703 21.2465 14.5336C21.7024 14.5973 22.0926 14.2269 22.1172 14.0496C22.1418 13.8719 21.7918 13.6766 21.3352 13.6129C20.8793 13.5492 20.4891 13.6414 20.4649 13.8191ZM21.3516 14.7086L21.2235 14.6996C20.9403 14.6602 20.6539 14.4816 20.4582 14.2219C20.3895 14.1309 20.277 13.9535 20.2992 13.7957C20.3313 13.5641 20.6133 13.4258 21.0543 13.4258C21.1531 13.4258 21.2555 13.4332 21.359 13.4473C21.5996 13.4809 21.8235 13.5504 21.9887 13.6426C22.275 13.8027 22.2961 13.9809 22.2832 14.0734C22.2477 14.3285 21.8406 14.7086 21.3516 14.7086ZM20.6313 13.8488C20.6457 13.9582 20.9164 14.3195 21.2696 14.3684L21.3512 14.3742C21.677 14.3742 21.9207 14.1176 21.9492 14.0336C21.9192 13.9766 21.7098 13.834 21.3121 13.7793C21.2266 13.767 21.1403 13.7607 21.0539 13.7605C20.7992 13.7602 20.6629 13.8176 20.6313 13.8488ZM34.3504 13.457C34.375 13.6348 34.0254 14.1086 33.5688 14.1719C33.1125 14.2352 32.7223 13.8652 32.6973 13.6875C32.6731 13.5102 33.0231 13.3144 33.4793 13.2512C33.9356 13.1871 34.3254 13.2801 34.3504 13.457ZM33.4637 14.2625C33.0242 14.2625 32.6457 13.9207 32.6145 13.6992C32.5785 13.4332 33.0164 13.2309 33.468 13.1684C33.5672 13.1543 33.6656 13.1473 33.7606 13.1473C34.15 13.1473 34.4078 13.2617 34.4336 13.4457C34.4504 13.5652 34.359 13.7492 34.2012 13.9148C34.0973 14.0242 33.8785 14.2137 33.5809 14.2547L33.4637 14.2625ZM33.7602 13.3144C33.6731 13.3144 33.5824 13.3211 33.4906 13.3336C33.0367 13.3965 32.7668 13.5789 32.7797 13.6766C32.7949 13.7836 33.0844 14.0953 33.4633 14.0953L33.5567 14.0887C33.8043 14.0539 33.9903 13.8926 34.0789 13.7992C34.218 13.6527 34.2735 13.5152 34.2668 13.468C34.2586 13.4066 34.0914 13.3144 33.7602 13.3144ZM35.0078 23.6476C34.9169 23.6476 34.8277 23.6229 34.7498 23.5761C34.6718 23.5293 34.608 23.4622 34.5652 23.382C34.5224 23.3018 34.5022 23.2114 34.5068 23.1206C34.5113 23.0298 34.5404 22.9419 34.591 22.8664C35.6598 21.2699 35.4641 19.6414 35.275 18.0672C35.1942 17.3961 35.111 16.7027 35.1328 16.0367C35.1547 15.3519 35.2414 14.7871 35.3258 14.2402C35.4254 13.593 35.5196 12.9809 35.4805 12.2551C35.4776 12.1246 35.5256 11.9982 35.6143 11.9025C35.703 11.8068 35.8255 11.7494 35.9557 11.7424C36.086 11.7354 36.2139 11.7794 36.3124 11.865C36.4108 11.9506 36.4721 12.0712 36.4832 12.2012C36.5278 13.0309 36.4211 13.723 36.318 14.393C36.2383 14.9098 36.1559 15.4441 36.136 16.0687C36.1168 16.6582 36.1922 17.2844 36.2719 17.9469C36.4735 19.6215 36.7012 21.5195 35.4254 23.4246C35.3285 23.5691 35.1696 23.6476 35.0078 23.6476Z" fill="white"/>
<path d="M1.10742 40.3063C1.66828 40.2153 2.23573 40.1711 2.80391 40.1742C3.67695 40.1742 4.31719 40.3774 4.72344 40.743C5.09922 41.068 5.32266 41.5656 5.32266 42.1754C5.32266 42.7949 5.13945 43.2824 4.79414 43.6379C4.32695 44.1356 3.56523 44.3895 2.70195 44.3895C2.43789 44.3895 2.19414 44.3793 1.99141 44.3285V47.0711H1.10742V40.3063ZM1.99141 43.607C2.18438 43.6578 2.42812 43.6781 2.72266 43.6781C3.78867 43.6781 4.43906 43.1602 4.43906 42.2156C4.43906 41.3117 3.79922 40.875 2.82422 40.875C2.43828 40.875 2.14375 40.9055 1.99141 40.9461V43.607ZM10.675 44.5719C10.675 46.3898 9.41524 47.1824 8.22695 47.1824C6.89649 47.1824 5.8707 46.2074 5.8707 44.6531C5.8707 43.0078 6.94726 42.043 8.3082 42.043C9.72031 42.0426 10.675 43.0688 10.675 44.5719ZM6.775 44.6227C6.775 45.6992 7.39453 46.5117 8.26797 46.5117C9.12109 46.5117 9.76055 45.7094 9.76055 44.6023C9.76055 43.7695 9.34453 42.7133 8.28789 42.7133C7.23125 42.7133 6.775 43.6883 6.775 44.6227ZM11.6801 46.1563C11.9441 46.3289 12.4113 46.5117 12.8582 46.5117C13.5082 46.5117 13.8129 46.1867 13.8129 45.7805C13.8129 45.3539 13.5594 45.1203 12.8988 44.8766C12.0152 44.5617 11.5988 44.0742 11.5988 43.4852C11.5988 42.693 12.2387 42.043 13.2949 42.043C13.7926 42.043 14.2297 42.1852 14.5039 42.3477L14.2805 42.9977C13.9782 42.8114 13.6301 42.7129 13.275 42.7133C12.7469 42.7133 12.4523 43.018 12.4523 43.3836C12.4523 43.7898 12.7473 43.9727 13.3871 44.2164C14.2402 44.5414 14.677 44.968 14.677 45.6992C14.677 46.5625 14.0066 47.1719 12.8387 47.1719C12.3004 47.1719 11.8027 47.0398 11.4574 46.8367L11.6801 46.1563ZM16.9008 40.7426V42.1543H18.1801V42.8348H16.9008V45.4856C16.9008 46.0949 17.073 46.4402 17.5711 46.4402C17.7457 46.4428 17.9198 46.4223 18.0891 46.3793L18.1297 47.0496C17.9574 47.1207 17.6828 47.1715 17.3379 47.1715C16.9215 47.1715 16.5859 47.0395 16.3727 46.7957C16.1191 46.5316 16.0273 46.0949 16.0273 45.516V42.8348H15.2656V42.1543H16.0273V40.9762L16.9008 40.7426ZM23.3602 42.1547C23.3395 42.5102 23.3195 42.9063 23.3195 43.5055V46.3594C23.3195 47.4867 23.0961 48.1774 22.6187 48.6043C22.1414 49.0512 21.4508 49.1934 20.8312 49.1934C20.2422 49.1934 19.5922 49.0512 19.1957 48.7871L19.4191 48.1066C19.7441 48.3098 20.252 48.4926 20.8613 48.4926C21.7754 48.4926 22.4457 48.0152 22.4457 46.7762V46.2277H22.4254C22.1512 46.6848 21.623 47.0504 20.8613 47.0504C19.6426 47.0504 18.7691 46.0145 18.7691 44.6531C18.7691 42.9875 19.8559 42.043 20.9832 42.043C21.8367 42.043 22.3039 42.4899 22.5172 42.8961H22.5375L22.5781 42.1547H23.3602ZM22.4359 44.0945C22.4359 43.9422 22.4258 43.8102 22.3852 43.6883C22.2227 43.1703 21.7859 42.7438 21.1359 42.7438C20.2824 42.7438 19.6734 43.4648 19.6734 44.6023C19.6734 45.5672 20.1609 46.3695 21.1258 46.3695C21.6742 46.3695 22.1719 46.0242 22.3648 45.4555C22.4156 45.3031 22.4363 45.1305 22.4363 44.9781L22.4359 44.0945ZM24.741 43.6883C24.741 43.1094 24.7309 42.6117 24.7004 42.1547H25.4828L25.5129 43.1195H25.5535C25.777 42.4594 26.3152 42.043 26.9145 42.043C27.016 42.043 27.0867 42.0531 27.168 42.0734V42.9164C27.068 42.8947 26.9659 42.8844 26.8637 42.8859C26.234 42.8859 25.7867 43.3633 25.6652 44.0336C25.6402 44.171 25.6266 44.3103 25.6246 44.45V47.0703H24.741V43.6883ZM28.4586 44.775C28.4789 45.9836 29.2504 46.4813 30.1441 46.4813C30.7844 46.4813 31.1699 46.3695 31.5051 46.2274L31.6574 46.8672C31.3426 47.0094 30.8043 47.1719 30.0223 47.1719C28.509 47.1719 27.6051 46.1766 27.6051 44.6938C27.6051 43.2109 28.4785 42.0426 29.9105 42.0426C31.5152 42.0426 31.9418 43.4543 31.9418 44.3582C31.9418 44.541 31.9215 44.6832 31.9113 44.7746L28.4586 44.775ZM31.0789 44.1352C31.0887 43.5664 30.8449 42.6828 29.8398 42.6828C28.9359 42.6828 28.5398 43.5156 28.4684 44.1352H31.0789Z" fill="white"/>
<path d="M32.9574 45.9938C33.4362 46.2814 33.9833 46.4356 34.5418 46.4406C35.4457 46.4406 35.9738 45.9633 35.9738 45.2727C35.9738 44.6328 35.6082 44.2672 34.684 43.9117C33.5668 43.5156 32.8762 42.9367 32.8762 41.9719C32.8762 40.9055 33.7598 40.1133 35.0902 40.1133C35.791 40.1133 36.2988 40.2758 36.6035 40.4484L36.3598 41.1695C35.9602 40.9547 35.5134 40.843 35.0598 40.8445C34.1254 40.8445 33.7699 41.4031 33.7699 41.8703C33.7699 42.5102 34.1859 42.825 35.1308 43.1906C36.2887 43.6379 36.8777 44.1961 36.8777 45.2016C36.8777 46.2578 36.0957 47.1719 34.4809 47.1719C33.8207 47.1719 33.0996 46.9789 32.7336 46.7352L32.9574 45.9938ZM43.7332 48.0758C42.8503 47.8441 41.9763 47.5798 41.1129 47.2836C40.9707 47.2328 40.8285 47.182 40.6965 47.182C39.0715 47.1211 37.6801 45.9227 37.6801 43.7187C37.6801 41.525 39.0207 40.1133 40.8691 40.1133C42.7277 40.1133 43.9367 41.5555 43.9367 43.5766C43.9367 45.3336 43.1242 46.4609 41.9867 46.857V46.8977C42.6672 47.0703 43.4086 47.2328 43.9875 47.3344L43.7332 48.0758ZM43.0019 43.6172C43.0019 42.2461 42.2914 40.834 40.8387 40.834C39.3457 40.834 38.6144 42.2152 38.6246 43.6984C38.6144 45.1508 39.4168 46.4609 40.798 46.4609C42.2101 46.4609 43.0019 45.1813 43.0019 43.6172ZM45.0836 40.225H45.9676V46.3289H48.8926V47.0703H45.0836V40.225Z" fill="#336791"/>
</svg>
