<svg width="50" height="50" viewBox="0 0 50 50" fill="none" xmlns="http://www.w3.org/2000/svg">
<g clip-path="url(#clip0_5_100)">
<path d="M46.6863 19.9953H30.973C30.7862 19.9953 30.6013 19.9584 30.4288 19.8869C30.2562 19.8154 30.0995 19.7106 29.9674 19.5785C29.8354 19.4464 29.7307 19.2895 29.6593 19.117C29.5878 18.9444 29.5511 18.7594 29.5511 18.5727V2.19531C29.5519 1.9067 29.4956 1.62079 29.3855 1.35402C29.2754 1.08724 29.1136 0.844875 28.9095 0.640852C28.7053 0.436829 28.4629 0.275177 28.196 0.165195C27.9292 0.0552138 27.6433 -0.00092775 27.3547 1.32759e-07H21.7422C21.4534 -0.00108234 21.1673 0.0549422 20.9004 0.16485C20.6334 0.274757 20.3907 0.436378 20.1865 0.640412C19.9822 0.844445 19.8202 1.08686 19.71 1.35372C19.5998 1.62057 19.5434 1.90659 19.5441 2.19531V18.4633C19.5447 18.6646 19.5056 18.8641 19.4288 19.0503C19.3521 19.2365 19.2394 19.4056 19.0971 19.5481C18.9548 19.6906 18.7858 19.8035 18.5997 19.8805C18.4137 19.9574 18.2142 19.9968 18.0129 19.9965L12.8613 20.0148C12.0113 20.0148 11.3097 19.3312 11.3277 18.4812L11.3644 2.19727C11.3654 1.90841 11.3092 1.62221 11.1991 1.35516C11.089 1.08811 10.9272 0.845475 10.7229 0.641239C10.5186 0.437003 10.276 0.275199 10.0089 0.165147C9.74183 0.0550944 9.45562 -0.00103207 9.16677 1.32759e-07H3.55466C3.26586 -0.000824575 2.97975 0.0554436 2.71277 0.16557C2.44579 0.275696 2.20321 0.437507 1.99898 0.641702C1.79475 0.845896 1.6329 1.08844 1.52272 1.3554C1.41255 1.62236 1.35623 1.90847 1.357 2.19727V48.043C1.357 49.1121 2.22419 50 3.31403 50H46.6863C47.2051 49.9994 47.7025 49.7929 48.0693 49.4259C48.4361 49.0589 48.6422 48.5614 48.6426 48.0426V21.9512C48.6442 21.6938 48.5947 21.4387 48.497 21.2006C48.3993 20.9626 48.2552 20.7463 48.0733 20.5643C47.8913 20.3824 47.6749 20.2384 47.4369 20.1407C47.1988 20.043 46.9436 19.9936 46.6863 19.9953ZM39.3203 37.2039C39.3181 37.8792 39.0489 38.5262 38.5713 39.0037C38.0938 39.4811 37.4467 39.7503 36.7715 39.7523H32.3402C31.6651 39.7501 31.0182 39.4808 30.5408 39.0034C30.0635 38.526 29.7943 37.8791 29.7922 37.2039V32.7734C29.7943 32.0983 30.0635 31.4514 30.5408 30.9739C31.0182 30.4965 31.6651 30.2273 32.3402 30.225H36.7711C37.4463 30.2271 38.0933 30.4961 38.5708 30.9735C39.0483 31.4509 39.3176 32.0978 39.3199 32.773L39.3203 37.2039Z" fill="#FF6600"/>
</g>
<defs>
<clipPath id="clip0_5_100">
<rect width="50" height="50" fill="white"/>
</clipPath>
</defs>
</svg>
