<svg width="50" height="50" viewBox="0 0 50 50" fill="none" xmlns="http://www.w3.org/2000/svg">
<rect width="50" height="50" rx="25" fill="#131010"/>
<g clip-path="url(#clip0_5_148)">
<path d="M38.469 18.5151C38.0241 18.3545 37.5755 18.2057 37.1235 18.0689C37.1994 17.7425 37.2693 17.4201 37.3313 17.1033C38.35 11.9016 37.6841 7.7109 35.4095 6.33113C33.2287 5.0084 29.6622 6.38765 26.0603 9.68538C25.7053 10.011 25.3582 10.3459 25.0193 10.69C24.7924 10.4612 24.5615 10.2369 24.3268 10.0171C20.5517 6.49106 16.7679 5.00496 14.4958 6.38868C12.317 7.71554 11.6718 11.6551 12.5889 16.5849C12.6801 17.0731 12.7831 17.5589 12.8978 18.0416C12.3622 18.2017 11.8454 18.3721 11.3508 18.5535C6.92485 20.1769 4.09839 22.7208 4.09839 25.3596C4.09839 28.085 7.13272 30.8185 11.7425 32.4761C12.1162 32.6099 12.4931 32.7339 12.8727 32.848C12.7494 33.3679 12.6399 33.8914 12.5444 34.4178C11.6702 39.2621 12.3529 43.1085 14.5259 44.4269C16.7702 45.7885 20.537 44.3891 24.2048 41.0161C24.5022 40.7419 24.7931 40.4599 25.0771 40.1705C25.4441 40.543 25.8209 40.9047 26.2071 41.2551C29.76 44.4712 33.2689 45.7699 35.4397 44.4479C37.6819 43.0824 38.4107 38.9503 37.4646 33.923C37.3901 33.5292 37.3065 33.1373 37.2139 32.7477C37.4785 32.6652 37.7381 32.5804 37.9912 32.4921C42.7836 30.8218 45.9017 28.1214 45.9017 25.3596C45.9017 22.7112 42.9839 20.1501 38.469 18.5151ZM37.4296 30.709C37.201 30.7885 36.9665 30.8653 36.7275 30.94C36.1984 29.178 35.4845 27.3045 34.6107 25.3687C35.4445 23.4791 36.131 21.6295 36.6452 19.879C37.0728 20.0092 37.4878 20.1465 37.8878 20.2913C41.7563 21.6924 44.1159 23.7636 44.1159 25.3596C44.1159 27.0596 41.5675 29.2665 37.4296 30.709ZM35.7128 34.2879C36.1311 36.5108 36.1907 38.5206 35.9136 40.0919C35.6648 41.5038 35.1641 42.445 34.5449 42.8221C33.2276 43.6243 30.4103 42.5816 27.3719 39.831C27.0127 39.5052 26.6622 39.1689 26.3208 38.8226C27.4988 37.4674 28.6759 35.892 29.8249 34.1422C31.8458 33.9536 33.755 33.6451 35.4864 33.224C35.5699 33.5767 35.6453 33.9314 35.7128 34.2879ZM18.35 42.6835C17.063 43.1615 16.0378 43.1753 15.4181 42.7994C14.0995 41.9994 13.5513 38.9109 14.299 34.7682C14.3879 34.2787 14.4897 33.7918 14.6042 33.3082C16.3165 33.7067 18.2119 33.9933 20.2376 34.1661C21.3943 35.8783 22.6055 37.452 23.8261 38.83C23.5667 39.0941 23.3012 39.3514 23.0297 39.6017C21.4077 41.0931 19.7825 42.1513 18.35 42.6835ZM12.3202 30.6985C10.2818 29.9655 8.59845 29.0129 7.44461 27.9735C6.40769 27.0395 5.88434 26.112 5.88434 25.3596C5.88434 23.7582 8.15363 21.7157 11.9386 20.3275C12.398 20.1592 12.8787 20.0003 13.3776 19.8512C13.9008 21.6412 14.5869 23.5128 15.415 25.4053C14.5762 27.3258 13.8802 29.2273 13.3519 31.0384C13.0054 30.934 12.6614 30.8207 12.3202 30.6985ZM14.3415 16.224C13.5559 12.0003 14.0776 8.81426 15.3907 8.01461C16.7891 7.16291 19.8816 8.37725 23.1411 11.4219C23.3536 11.6209 23.5627 11.824 23.7683 12.0309C22.5537 13.4029 21.3537 14.965 20.2072 16.667C18.2411 16.8587 16.3592 17.1666 14.6289 17.579C14.5223 17.13 14.4265 16.6781 14.3415 16.224ZM32.3736 20.9082C31.9649 20.1655 31.541 19.4323 31.1023 18.7088C32.4361 18.8863 33.7141 19.1218 34.9141 19.4097C34.5539 20.6246 34.1048 21.8946 33.5762 23.1967C33.1899 22.4255 32.7889 21.6625 32.3736 20.9082ZM25.0201 13.3736C25.8438 14.3124 26.6687 15.3604 27.4801 16.4976C25.8341 16.4159 24.1854 16.4155 22.5394 16.4966C23.3516 15.3699 24.1836 14.3232 25.0201 13.3736ZM17.6195 20.9211C17.2093 21.6693 16.8158 22.4276 16.4393 23.1951C15.9194 21.8976 15.4744 20.6218 15.1111 19.3898C16.3038 19.1091 17.5757 18.8796 18.901 18.7054C18.4574 19.4332 18.0301 20.1721 17.6195 20.9211ZM18.939 32.1475C17.5698 31.9867 16.2788 31.769 15.0864 31.4959C15.4555 30.2419 15.9103 28.9389 16.4415 27.6136C16.8195 28.3817 17.2146 29.1404 17.6265 29.889C18.0501 30.6586 18.4887 31.4124 18.939 32.1475ZM25.0694 37.4779C24.2229 36.5173 23.3787 35.4545 22.5542 34.3114C23.3547 34.3444 24.1707 34.3612 25 34.3612C25.8521 34.3612 26.6944 34.3411 27.5234 34.3023C26.7094 35.466 25.8875 36.5304 25.0694 37.4779ZM33.5931 27.5459C34.1518 28.8858 34.6228 30.1819 34.9967 31.4145C33.7848 31.7055 32.4761 31.9398 31.0973 32.1138C31.5391 31.3769 31.967 30.6309 32.3806 29.8761C32.8011 29.109 33.2054 28.332 33.5931 27.5459ZM30.8337 28.9375C30.2005 30.0947 29.5317 31.2299 28.8283 32.3414C27.5542 32.4363 26.2773 32.4835 25 32.4828C23.6991 32.4828 22.4337 32.4402 21.2152 32.357C20.4935 31.2481 19.8119 30.1109 19.1719 28.9478C18.5349 27.7909 17.9401 26.6089 17.3884 25.4044C17.9387 24.1997 18.5319 23.0172 19.1667 21.8593L19.1665 21.8595C19.8011 20.7014 20.4772 19.569 21.1935 18.4649C22.4366 18.3659 23.7115 18.3144 24.9999 18.3144C26.2941 18.3144 27.5708 18.3665 28.8136 18.4661C29.5226 19.5686 30.1945 20.697 30.8278 21.8494C31.4647 23.0047 32.0658 24.1814 32.6299 25.3778C32.0716 26.5864 31.4724 27.7738 30.8337 28.9375ZM34.5176 7.95861C35.9174 8.80791 36.4618 12.2328 35.5823 16.724C35.5261 17.0106 35.4631 17.3024 35.3945 17.5984C33.66 17.1772 31.7767 16.864 29.805 16.6694C28.6563 14.9487 27.4661 13.3842 26.2713 12.0299C26.5844 11.7123 26.905 11.403 27.2327 11.1023C30.319 8.27692 33.2034 7.16136 34.5176 7.95861ZM25 21.4326C27.0616 21.4326 28.7329 23.1908 28.7329 25.3596C28.7329 27.5284 27.0616 29.2866 25 29.2866C22.9384 29.2866 21.2671 27.5284 21.2671 25.3596C21.2671 23.1908 22.9384 21.4326 25 21.4326Z" fill="#00D8FF"/>
</g>
<defs>
<clipPath id="clip0_5_148">
<rect width="41.8033" height="39.1667" fill="white" transform="translate(4.09839 5.83333)"/>
</clipPath>
</defs>
</svg>
