<svg width="50" height="50" viewBox="0 0 50 50" fill="none" xmlns="http://www.w3.org/2000/svg">
<g clip-path="url(#clip0_7_220)">
<path d="M38.2812 0H11.7188C5.24666 0 0 5.24666 0 11.7188V38.2812C0 44.7533 5.24666 50 11.7188 50H38.2812C44.7533 50 50 44.7533 50 38.2812V11.7188C50 5.24666 44.7533 0 38.2812 0Z" fill="#242938"/>
<mask id="mask0_7_220" style="mask-type:luminance" maskUnits="userSpaceOnUse" x="5" y="5" width="40" height="40">
<path d="M5.46875 5.46875H44.5312V44.5312H5.46875V5.46875Z" fill="white"/>
</mask>
<g mask="url(#mask0_7_220)">
<path d="M43.0004 34.0758C40.9159 35.1631 30.1182 39.6025 27.8194 40.8006C25.5204 41.9988 24.2436 41.9875 22.4272 41.1195C20.6108 40.2518 9.12036 35.6105 7.04907 34.6205C6.01353 34.1254 5.47095 33.7092 5.47095 33.3156V29.3672C5.47095 29.3672 20.4317 26.1104 22.8475 25.2436C25.2635 24.3768 26.0993 24.3457 28.1559 25.0986C30.2125 25.8514 42.5014 28.0686 44.5321 28.8131V32.7068C44.5321 33.0973 44.0641 33.5352 43.0026 34.0779L43.0004 34.0758Z" fill="#A41E11"/>
<path d="M43.0003 30.1262C40.9155 31.2135 30.1179 35.6529 27.8191 36.851C25.52 38.0492 24.2433 38.0377 22.4269 37.1699C20.6105 36.3021 9.12004 31.6607 7.04875 30.6709C4.97765 29.6809 4.93625 29.0006 6.96906 28.2041L22.8462 22.057C25.2612 21.1914 26.098 21.1592 28.1544 21.9121C30.2111 22.665 40.9437 26.9367 42.9734 27.6926C45.003 28.4486 45.0827 29.0492 42.9982 30.1365L43.0003 30.1262Z" fill="#D82C20"/>
<path d="M43.0004 27.6367C40.9159 28.724 30.1182 33.1635 27.8194 34.3615C25.5204 35.5598 24.2436 35.5482 22.4272 34.6805C20.6108 33.8127 9.12036 29.1713 7.04907 28.1815C6.01353 27.6863 5.47095 27.2701 5.47095 26.8766V22.9279C5.47095 22.9279 20.4317 19.6711 22.8475 18.8045C25.2635 17.9377 26.0993 17.9066 28.1559 18.6594C30.2125 19.4123 42.5014 21.6295 44.5321 22.374V26.2678C44.5321 26.658 44.0641 27.0961 43.0026 27.6387L43.0004 27.6367Z" fill="#A41E11"/>
<path d="M43.0003 23.6881C40.9155 24.7754 30.1179 29.2148 27.8191 30.4131C25.52 31.6111 24.2433 31.5998 22.4269 30.732C20.6105 29.8641 9.12004 25.2228 7.04875 24.2328C4.97765 23.2428 4.93625 22.5625 6.96906 21.766L22.8462 15.6201C25.2612 14.7533 26.098 14.7223 28.1544 15.4752C30.2111 16.2279 40.9437 20.5006 42.9753 21.2432C45.0071 21.9857 45.0849 22.5998 43.0003 23.6871V23.6881Z" fill="#D82C20"/>
<path d="M43.0004 20.9594C40.9159 22.0467 30.1182 26.4861 27.8194 27.6853C25.5204 28.8846 24.2436 28.8721 22.4272 28.0043C20.6108 27.1365 9.12036 22.4951 7.04907 21.5051C6.01353 21.0102 5.47095 20.5939 5.47095 20.2004V16.2496C5.47095 16.2496 20.4317 12.993 22.8475 12.1262C25.2635 11.2594 26.0993 11.2283 28.1559 11.9812C30.2125 12.734 42.5014 14.9512 44.5321 15.6957V19.5895C44.5321 19.9799 44.0641 20.4178 43.0026 20.9605L43.0004 20.9594Z" fill="#A41E11"/>
<path d="M43.0003 17.0098C40.9155 18.0971 30.1179 22.5365 27.8191 23.7348C25.52 24.9328 24.2433 24.9215 22.4269 24.0537C20.6105 23.1859 9.12004 18.5445 7.04875 17.5545C4.97765 16.5645 4.93625 15.8842 6.96906 15.0877L22.8462 8.9418C25.2612 8.075 26.098 8.04395 28.1544 8.79688C30.2111 9.54961 40.9437 13.8223 42.9753 14.5648C45.0071 15.3074 45.0849 15.9215 43.0003 17.0088V17.0098Z" fill="#D82C20"/>
<path d="M25.9758 15.3818L24.7517 13.3471L20.8435 12.9949L23.7598 11.9428L22.8846 10.3275L25.6144 11.394L28.1887 10.551L27.4928 12.2203L30.117 13.2041L26.7328 13.5563L25.9758 15.3818ZM19.4558 19.433L28.5066 18.0434L25.7728 22.0529L19.4558 19.433ZM17.0162 17.9719C19.6881 17.9719 21.8543 17.132 21.8543 16.0965C21.8543 15.0607 19.6881 14.2211 17.0162 14.2211C14.3441 14.2211 12.1779 15.0607 12.1779 16.0965C12.1779 17.1322 14.3439 17.9719 17.0162 17.9719Z" fill="white"/>
<path d="M39.4752 15.8231L34.1215 17.9377L34.1174 13.7053L39.4752 15.8231Z" fill="#7A0C00"/>
<path d="M34.1225 17.9375L33.5426 18.1654L28.193 16.0508L34.1194 13.7065L34.1225 17.9377V17.9375Z" fill="#AD2115"/>
</g>
</g>
<defs>
<clipPath id="clip0_7_220">
<rect width="50" height="50" rx="25" fill="white"/>
</clipPath>
</defs>
</svg>
