<svg width="50" height="50" viewBox="0 0 50 50" fill="none" xmlns="http://www.w3.org/2000/svg">
<g clip-path="url(#clip0_5_156)">
<path d="M38.2812 0H11.7188C5.24666 0 0 5.24666 0 11.7188V38.2812C0 44.7533 5.24666 50 11.7188 50H38.2812C44.7533 50 50 44.7533 50 38.2812V11.7188C50 5.24666 44.7533 0 38.2812 0Z" fill="#764ABC"/>
<path d="M32.0662 31.8982C33.5078 31.749 34.6014 30.5062 34.5516 29.015C34.502 27.5238 33.2592 26.3309 31.768 26.3309H31.6686C30.1276 26.3805 28.9346 27.6728 28.9842 29.2139C29.034 29.9596 29.3322 30.6057 29.7795 31.0531C28.0895 34.3836 25.5047 36.8193 21.6274 38.8574C18.9928 40.2492 16.2588 40.7463 13.5248 40.3984C11.2879 40.1002 9.54826 39.1059 8.45451 37.4656C6.86388 35.0299 6.71486 32.3953 8.05685 29.7607C9.00138 27.8717 10.4926 26.4799 11.4371 25.784C11.2383 25.1379 10.9401 24.0441 10.7908 23.2488C3.58322 28.4684 4.32873 35.5269 6.51584 38.8574C8.15646 41.3428 11.4867 42.8838 15.1653 42.8838C16.1594 42.8838 17.1535 42.7844 18.1477 42.5357C24.5106 41.2932 29.3322 37.5152 32.0662 31.8982Z" fill="white"/>
<path d="M40.8148 25.7344C37.0371 21.3102 31.4697 18.8746 25.107 18.8746H24.3117C23.8643 17.9797 22.9197 17.3832 21.876 17.3832H21.7766C20.2356 17.433 19.0426 18.7254 19.0922 20.2664C19.142 21.7576 20.3846 22.9506 21.876 22.9506H21.9754C23.0689 22.901 24.0135 22.2051 24.4111 21.2605H25.3059C29.0836 21.2605 32.6627 22.3541 35.8938 24.4916C38.3791 26.132 40.1688 28.2695 41.1629 30.8543C42.008 32.942 41.9582 34.9801 41.0635 36.7199C39.6717 39.3545 37.3354 40.7961 34.2533 40.7961C32.265 40.7961 30.3762 40.1996 29.3818 39.7521C28.8352 40.2492 27.841 41.0445 27.1451 41.5416C29.2824 42.5357 31.4697 43.0826 33.5574 43.0826C38.3295 43.0826 41.8588 40.448 43.201 37.8135C44.6426 34.9305 44.5432 29.9596 40.8148 25.7344Z" fill="white"/>
<path d="M15.5629 32.7434C15.6127 34.2346 16.8553 35.4275 18.3467 35.4275H18.4461C19.9869 35.3777 21.1801 34.0854 21.1303 32.5443C21.0806 31.0531 19.8379 29.8602 18.3467 29.8602H18.247C18.1478 29.8602 17.9986 29.8602 17.8994 29.91C15.8611 26.5297 15.0162 22.8512 15.3144 18.8746C15.5133 15.8922 16.5074 13.3072 18.2472 11.1695C19.6886 9.33047 22.4724 8.43574 24.3613 8.38594C29.6304 8.28652 31.8674 14.848 32.0164 17.4826C32.6627 17.6318 33.7562 17.9799 34.5019 18.2283C33.9054 10.1758 28.9345 6 24.1625 6C19.6886 6 15.5629 9.23105 13.9224 14.0031C11.6359 20.3658 13.1271 26.4799 15.9107 31.3018C15.6623 31.6496 15.5131 32.1965 15.5629 32.7434Z" fill="white"/>
</g>
<defs>
<clipPath id="clip0_5_156">
<rect width="50" height="50" rx="25" fill="white"/>
</clipPath>
</defs>
</svg>
