<svg width="128" height="128" viewBox="0 0 128 128" fill="none" xmlns="http://www.w3.org/2000/svg">
<path d="M75.3899 15.3099C75.1899 15.3699 74.1399 15.7199 73.0299 16.0799C67.0899 18.0199 62.88 20.2699 61.84 22.0599C61.44 22.7399 61.3699 23.2999 61.5999 23.8499C61.8599 24.4699 62.34 24.9499 63.66 25.8799C64.28 26.3199 65.3299 27.2199 66.0199 27.8999C69.2899 31.1599 70.87 35.1599 70.69 39.6799C70.49 44.7699 68.1 49.8599 63.54 54.9399C61.95 56.7199 60.31 58.1999 57.18 60.7099C54.57 62.7999 53.15 64.1599 52.18 65.4699C49.21 69.5099 50.0099 73.1099 54.5299 76.1199C58.5199 78.7799 65.5499 80.9899 73.8499 82.1899C76.6299 82.5899 79.7699 82.8499 80.5299 82.7399L81.0599 82.6599L81.8899 81.1599C86.0999 73.5899 88.2199 66.4399 88.4799 59.0499C88.5899 55.7499 88.1799 51.8499 87.4699 49.5699C87.3399 49.1599 87.2499 48.8099 87.2599 48.7999C87.2699 48.7899 88.4499 48.4299 89.8699 48.0099C97.3599 45.7799 104.61 44.0199 110.6 42.9799C111.77 42.7799 112.76 42.5699 112.81 42.5199C113.13 42.2099 112.2 40.7499 110.68 39.1899C105.08 33.4099 95.1799 29.0099 83.5599 27.1299C81.3199 26.7699 81.0499 26.6399 80.2199 25.5399C78.8999 23.7899 77.6599 20.8099 75.9699 15.3399C75.9199 15.1599 75.8699 15.1599 75.3899 15.3099ZM76.16 17.3699C76.81 19.1499 77.2099 20.5399 77.2099 21.0299V21.4199L76.66 21.3599C73.67 21.0099 68.89 20.2699 67.87 19.9999C67.61 19.9299 67.46 19.8299 67.51 19.7499C67.59 19.6299 68.5999 19.1399 71.6199 17.7699C74.4299 16.4899 75.4999 16.0199 75.5899 16.0099C75.6299 15.9999 75.88 16.6199 76.16 17.3699ZM69.83 21.1199C73.48 21.8899 76.1499 22.3699 76.7299 22.3699C77.2999 22.3699 77.2399 22.4199 74.5499 24.0599C72.4799 25.3199 72.2399 25.4399 71.7199 25.4399H71.15L69.61 23.8899C67.75 22.0099 66.4899 20.6299 66.4899 20.4699C66.4899 20.4099 66.53 20.3899 66.58 20.4199C66.63 20.4299 68.1 20.7499 69.83 21.1199ZM67.1299 22.8499C68.0299 23.8999 68.72 24.7799 68.68 24.8099C68.6 24.8799 66.04 24.2499 64.48 23.7699C63.11 23.3499 62.95 23.2099 63.31 22.7399C63.55 22.4299 65.31 20.9599 65.44 20.9499C65.48 20.9499 66.2299 21.7999 67.1299 22.8499ZM78.7899 25.0099C79.1499 25.8599 79.42 26.5499 79.41 26.5599C79.39 26.5699 74.5899 25.8299 74.1699 25.7499C74.0799 25.7299 74.8899 25.1799 75.9899 24.5099C77.0899 23.8399 78.0099 23.3399 78.0599 23.3899C78.1099 23.4399 78.4299 24.1599 78.7899 25.0099ZM68.32 26.6299C68.41 26.7199 69.56 30.4099 69.51 30.4599C69.49 30.4799 68.95 29.8499 68.3 29.0499C67.65 28.2499 66.6699 27.1199 66.0999 26.5399L65.08 25.4699L66.66 26.0199C67.54 26.3099 68.28 26.5899 68.32 26.6299ZM72.91 27.1199C74.9 27.3999 76.5499 27.6599 76.5799 27.6899C76.6099 27.7199 75.4 28.6599 73.91 29.7699C72.41 30.8799 71.18 31.7799 71.16 31.7599C71.14 31.7399 70.99 31.2799 70.82 30.7199C70.65 30.1699 70.2299 29.0199 69.8799 28.1599C69.5299 27.2999 69.2499 26.5999 69.2699 26.5999C69.2799 26.5999 70.92 26.8399 72.91 27.1199ZM77.91 28.7099C78.35 29.7399 78.5199 30.7199 78.5899 32.6899C78.6299 33.7499 78.6299 34.6099 78.5999 34.6099C78.5599 34.6099 77.9299 34.3899 77.1999 34.1299C75.7399 33.5999 72.8799 32.6599 72.5399 32.5899C72.3899 32.5599 73.0799 31.8999 74.8999 30.3399C76.3099 29.1199 77.5099 28.1299 77.5699 28.1299C77.6199 28.1299 77.77 28.3899 77.91 28.7099ZM83.0399 28.9599C85.2399 29.4099 87.1699 29.8099 87.3199 29.8499C87.5399 29.8999 87.0099 30.2299 84.6799 31.5099C83.0799 32.3899 81.2599 33.3899 80.6399 33.7399C80.0199 34.0899 79.4999 34.3599 79.4899 34.3499C79.4799 34.3399 79.5399 34.0099 79.6299 33.6199C79.9599 32.1899 79.7499 30.4099 79.0899 28.9899C78.8999 28.5799 78.7399 28.2099 78.7399 28.1899C78.7499 28.0799 79.1499 28.1599 83.0399 28.9599ZM89.0499 31.6499C88.9399 32.1499 88.6899 32.9999 88.4999 33.5499C88.0799 34.7599 86.5399 37.9099 86.3299 37.9899C86.2499 38.0199 85.5199 37.6899 84.7299 37.2499C83.9399 36.8099 82.7899 36.2299 82.1899 35.9599L81.0899 35.4699L85.1199 32.8799C88.4599 30.7399 89.1599 30.3299 89.1999 30.5199C89.2299 30.6499 89.1599 31.1499 89.0499 31.6499ZM91.9999 30.7299C96.1799 31.9299 100.6 33.5499 100.34 33.7899C100.29 33.8399 99.7399 34.0199 99.1299 34.1899C95.9699 35.0799 91.5799 36.5999 89.5299 37.5099C88.8899 37.7899 88.3399 37.9999 88.3099 37.9599C88.2799 37.9299 88.5299 37.0099 88.8699 35.9099C89.5299 33.7499 90.2999 30.8399 90.2999 30.4699C90.2999 30.3099 90.3599 30.2499 90.5099 30.2899C90.6099 30.3299 91.2799 30.5299 91.9999 30.7299ZM74.0099 35.0699C74.9599 35.3799 76.0799 35.8099 76.4899 36.0199C77.2299 36.3899 77.2399 36.3999 77.0299 36.6299C76.6499 37.0499 72.4999 40.9199 72.3799 40.9599C72.3199 40.9799 72.2699 40.3999 72.2699 39.5499C72.2699 38.0799 72.0999 35.4199 71.9699 34.8299C71.8699 34.3799 71.9499 34.3899 74.0099 35.0699ZM100.57 35.8399C99.6599 37.3499 98.1499 39.4999 97.0699 40.8599C95.9599 42.2499 93.6099 44.8599 93.4699 44.8599C93.4199 44.8599 93.0799 44.4399 92.7099 43.9199C91.3699 42.0099 89.8199 40.3599 88.4599 39.3999C88.3299 39.3099 88.2499 39.2099 88.2799 39.1799C88.3099 39.1499 90.5399 38.3299 93.2299 37.3499C98.67 35.3799 101.07 34.5799 101.22 34.6799C101.24 34.6899 100.95 35.2099 100.57 35.8399ZM103.97 35.5799C107.73 38.1999 110.28 40.3199 111.2 41.5899C111.43 41.9099 111.6 42.1799 111.58 42.1999C111.56 42.2199 110.35 42.3499 108.89 42.4999C103.06 43.0699 98.9099 43.6599 96.7099 44.2199C96.1199 44.3699 95.6299 44.4799 95.6199 44.4699C95.6099 44.4599 95.9999 43.9799 96.4899 43.3899C99.0299 40.3399 101.33 37.1699 102.18 35.5199C102.41 35.0799 102.63 34.7299 102.67 34.7299C102.72 34.7299 103.3 35.1099 103.97 35.5799ZM82.9299 38.8299C83.6499 39.2199 84.1999 39.5699 84.1699 39.6299C84.1099 39.7399 77.7799 43.2099 77.7199 43.1599C77.7099 43.1499 78.0299 42.1099 78.4499 40.8399C78.8699 39.5699 79.2699 38.1899 79.3499 37.7699L79.4899 36.9999L80.5599 37.5699C81.1499 37.8799 82.2099 38.4399 82.9299 38.8299ZM77.6199 39.0299C77.0099 41.1499 75.7699 43.8899 75.1999 44.3599C75.0699 44.4699 74.8099 44.3199 73.9799 43.6399C73.3899 43.1699 72.7899 42.6999 72.6299 42.5899C72.4799 42.4799 72.3599 42.3699 72.3899 42.3399C72.8299 41.9099 77.8699 37.8399 77.8999 37.8999C77.9099 37.9399 77.7899 38.4499 77.6199 39.0299ZM89.0999 42.7199C90.0499 43.3599 92.1699 45.2499 92.0599 45.3699C92.0299 45.3999 89.8799 46.0999 87.2899 46.9199C84.6999 47.7399 81.8099 48.6699 80.8699 48.9799C79.9299 49.2999 79.1499 49.5399 79.1399 49.5299C79.1299 49.5199 79.7899 48.7699 80.5999 47.8599C82.7199 45.4899 84.8999 42.9599 85.6799 41.9599L86.3499 41.0999L87.2199 41.5699C87.6899 41.8299 88.5399 42.3499 89.0999 42.7199ZM84.1899 41.3599C84.1299 41.4399 83.5599 42.1599 82.9199 42.9699C82.2799 43.7799 80.7399 45.7499 79.4999 47.3499L77.2399 50.2599L77.1699 49.7699C77.0299 48.8199 76.5199 46.9499 76.2299 46.3199L75.9399 45.6799L77.3799 44.9599C78.8599 44.2199 81.96 42.5399 83.41 41.6899C84.3 41.1699 84.3599 41.1399 84.1899 41.3599ZM72.1899 44.8799C72.7799 45.1799 73.3299 45.5799 73.3299 45.6999C73.3299 45.8899 69.4999 48.8499 69.3899 48.7399C69.3699 48.7099 69.71 48.0299 70.16 47.2199C70.61 46.4099 71.0599 45.4999 71.1699 45.1899C71.2799 44.8799 71.4399 44.6299 71.5299 44.6299C71.6199 44.6199 71.9099 44.7399 72.1899 44.8799ZM75.4499 48.5199C75.7099 49.0399 75.9899 50.4899 75.8499 50.6199C75.7899 50.6699 74.2099 51.4199 72.3299 52.2899C70.4499 53.1499 67.9999 54.3099 66.8799 54.8699C65.7599 55.4299 64.91 55.8199 65 55.7499C65.08 55.6799 66.3099 54.6399 67.7399 53.4599C70.4999 51.1699 73.6399 48.4299 74.2099 47.8199L74.5599 47.4499L74.8999 47.7699C75.0799 47.9499 75.3299 48.2899 75.4499 48.5199ZM72.3599 48.4899C72.0899 48.7399 70.6099 50.0199 69.0899 51.3399C67.5699 52.6599 65.7399 54.2499 65.0299 54.8699C63.5899 56.1199 63.59 56.1199 65.43 53.7299C66.85 51.8799 67.5899 51.1899 69.6299 49.8199C70.6199 49.1599 72.5899 48.0399 72.7899 48.0399C72.8199 48.0399 72.6299 48.2399 72.3599 48.4899ZM86.6299 49.7499C86.6999 50.1399 86.7999 51.3499 86.8399 52.4299L86.91 54.3999L86.4499 54.1899C84.8699 53.4599 80.4299 50.9599 80.5999 50.8899C81.5699 50.4999 86.3599 48.9099 86.4199 48.9699C86.4599 49.0099 86.5599 49.3599 86.6299 49.7499ZM82.8699 53.2799C84.7199 54.3699 86.2499 55.2699 86.2699 55.2899C86.2899 55.3099 86.0499 55.5099 85.7499 55.7299C85.1599 56.1599 78.8999 59.3999 78.8099 59.3199C78.7799 59.2899 78.8699 58.7499 78.9999 58.1299C79.2599 56.8699 79.4799 53.1099 79.3799 51.9199C79.3399 51.4999 79.3599 51.1999 79.4199 51.2399C79.4599 51.2699 81.0199 52.1899 82.8699 53.2799ZM77.7599 52.4799C77.8999 53.6499 77.73 55.9999 77.41 57.2299C77.04 58.6699 76.82 59.2699 76.66 59.3199C76.44 59.3899 75.0699 58.1499 74.2399 57.1099C73.3999 56.0599 72.2899 54.0899 72.4599 53.9299C72.5599 53.8299 77.4399 51.8199 77.5999 51.8199C77.6399 51.8099 77.7099 52.1099 77.7599 52.4799ZM71.7699 55.4199C72.2899 56.4899 73.4699 58.0299 74.7599 59.3399C75.5899 60.1799 75.7999 60.4499 75.6699 60.5399C75.0899 60.9299 72.4899 62.1499 70.8499 62.7899C68.8599 63.5699 66.2699 64.4699 66.2099 64.3899C66.1899 64.3599 66.7799 63.2799 67.5299 61.9899C69.1499 59.1799 71.1999 55.1899 71.1999 54.8599C71.2099 54.4499 71.3799 54.6199 71.7699 55.4199ZM68.6999 55.4899C68.6699 55.5699 68.42 56.1899 68.15 56.8699C67 59.7899 64.76 63.7599 64.26 63.7599C63.87 63.7599 63.2999 61.4499 63.1399 59.2299L63.06 58.1099L65.8 56.7299C67.31 55.9699 68.59 55.3499 68.65 55.3499C68.71 55.3399 68.7299 55.4099 68.6999 55.4899ZM86.9899 58.1899C86.9999 59.8699 86.2999 63.9399 85.9199 64.3499C85.7599 64.5199 84.0299 63.8799 82.4599 63.0699C81.0599 62.3499 78.7499 60.9199 78.7499 60.7699C78.7499 60.7299 79.0999 60.5499 79.5399 60.3699C80.3699 60.0199 84.2399 57.9499 85.8799 56.9799L86.8199 56.4199L86.8999 56.8499C86.9399 57.0899 86.9799 57.6999 86.9899 58.1899ZM61.18 60.1299C61.34 61.4599 61.7499 63.0899 62.2599 64.3799C62.4699 64.9099 62.62 65.3699 62.59 65.3899C62.39 65.5699 54.16 67.8399 53.07 68.0099L52.5499 68.0899L52.63 67.6899C52.74 67.1199 53.54 65.4999 54.13 64.6199C54.87 63.5299 56.6899 61.6999 57.8899 60.8499C58.7899 60.2199 60.9499 58.9499 61.0099 59.0299C61.0499 59.0399 61.11 59.5299 61.18 60.1299ZM79.8499 62.9399C82.3899 64.1599 83.3499 64.5799 84.5699 64.9999L85.4999 65.3199L84.91 65.6199C81.58 67.3099 75.68 69.7099 74.16 70.0099C73.82 70.0799 73.7699 70.0599 73.8399 69.8899C74.0999 69.2099 77.6199 61.9399 77.6899 61.9399C77.7299 61.9399 78.7099 62.3899 79.8499 62.9399ZM75.3799 62.6699C75.1999 63.5299 74.2299 66.2999 73.6699 67.5599C73.1799 68.6599 72.0499 70.7899 71.8499 70.9899C71.7599 71.0799 69.75 69.9499 68.8 69.2699C67.73 68.5099 65.3899 66.2499 65.4599 66.0399C65.4899 65.9599 66.9099 65.4099 68.6299 64.8199C72.2499 63.5699 74.2699 62.8199 74.8599 62.5099C75.4199 62.2099 75.4699 62.2299 75.3799 62.6699ZM85.4999 66.4899C85.4699 66.7399 85.2599 67.8299 85.0399 68.9399C84.3499 72.3999 83.5099 74.7699 82.9799 74.7699C82.2399 74.7699 77.1999 73.5499 75.5699 72.9699C74.4599 72.5799 73.5099 72.1299 73.1899 71.8599C72.9899 71.6899 73.0999 71.6299 74.5399 71.0399C79.1999 69.1399 84.58 66.7099 85.16 66.2499C85.51 65.9699 85.5599 66.0099 85.4999 66.4899ZM61.9 67.5499C61.37 68.4999 60.29 70.0599 58.22 72.8499L56.4599 75.2299L55.93 74.8499C55.19 74.3199 54.01 73.0399 53.52 72.2299C52.99 71.3599 52.63 70.2799 52.59 69.4599L52.56 68.8199L53.43 68.7299C54.61 68.6099 57.92 67.9299 60.27 67.3099C61.34 67.0299 62.23 66.8199 62.25 66.8299C62.26 66.8599 62.11 67.1799 61.9 67.5499ZM67.0299 69.9999C67.6199 70.4199 68.4299 70.9599 68.8399 71.1999L69.5899 71.6399L69.25 71.7799C69.06 71.8599 66.32 72.8599 63.15 73.9999C57.74 75.9499 57.39 76.0699 57.24 75.8699C57.15 75.7499 57.0899 75.6299 57.0999 75.5899C57.1099 75.5499 58.5699 73.6599 60.3499 71.3899L63.58 67.2599L64.7699 68.2499C65.4399 68.7999 66.4399 69.5799 67.0299 69.9999ZM68.36 76.2099C67.18 77.9799 66.1799 79.4699 66.1399 79.5099C66.0499 79.6299 64.16 79.1899 62.75 78.7099C61.27 78.2099 59.44 77.2899 58.72 76.6699L58.2 76.2199L59.3699 75.8999C64.1399 74.5999 70.45 72.9299 70.48 72.9499C70.5 72.9699 69.54 74.4399 68.36 76.2099ZM74.0299 73.5299C76.5599 74.3999 78.8599 74.8899 81.8499 75.2099L82.6699 75.2999L80.4399 76.0999C74.8799 78.1099 70.37 79.5199 68.11 79.9599C67.47 80.0799 66.89 80.1899 66.83 80.1899C66.77 80.1899 67.2199 79.5699 67.8399 78.8099C69.5399 76.7399 71.3799 74.3799 71.8699 73.6499C72.1099 73.2999 72.3499 72.9999 72.3999 72.9999C72.4599 73.0099 73.1899 73.2399 74.0299 73.5299ZM82.3199 78.2099C81.3599 80.6799 80.6599 82.1899 80.4199 82.2799C79.9499 82.4599 73.38 81.4999 71.37 80.9499C70.04 80.5899 69.19 80.2399 69.44 80.1499C69.54 80.1199 70.4899 79.8899 71.5599 79.6499C75.0299 78.8699 80.3299 77.2599 82.5299 76.3199C82.8099 76.1999 83.0599 76.1099 83.0799 76.1299C83.0999 76.1499 82.7599 77.0799 82.3199 78.2099ZM43.47 80.2999C43 80.4999 42.7799 80.8899 42.7299 81.6199C42.6799 82.2999 42.68 82.3099 42.34 82.3099C42 82.3099 41.9899 82.3299 42.0299 82.8099C42.0599 83.2599 42.0999 83.3099 42.3899 83.3499L42.7099 83.3899V87.0499L43.2599 86.9999L43.82 86.9599L43.86 85.1599L43.9 83.3599H45.54V84.6799C45.54 86.3199 45.7099 86.7499 46.4199 86.9899C46.7399 87.0999 47.04 87.1199 47.36 87.0499C47.81 86.9599 47.8299 86.9299 47.8699 86.4499L47.91 85.9399L47.52 86.0099C46.84 86.1299 46.8 86.0499 46.82 84.3899L46.83 83.3699H47.1699C47.7599 83.3699 47.8899 83.2599 47.8899 82.7699V82.3099H46.83V81.8699C46.83 81.2199 46.72 81.1099 46.11 81.1499L45.59 81.1799L45.5499 81.7399L45.5099 82.2999H43.88V81.8999C43.88 81.3499 44.1699 81.0799 44.6699 81.1799C45.0499 81.2499 45.06 81.2499 45.06 80.8599C45.06 80.6499 44.9899 80.3999 44.9199 80.3199C44.7599 80.1799 43.82 80.1599 43.47 80.2999ZM17.4099 80.4899C16.8999 80.8499 17.15 81.5999 17.79 81.5999C18.45 81.5999 18.5699 81.5099 18.5699 80.9999C18.5599 80.3499 17.9799 80.0899 17.4099 80.4899ZM8.74995 80.8099C8.56995 80.9399 8.54995 81.2399 8.57995 83.9599L8.60995 86.9599L9.16995 86.9999L9.72995 87.0399V84.4299C9.72995 82.9899 9.75995 81.8399 9.78995 81.8699C9.82995 81.8999 10.1699 82.8499 10.5599 83.9799C10.9499 85.1099 11.3499 86.2599 11.4499 86.5399L11.6399 87.0499L12.2299 86.9999L12.8199 86.9599L13.7199 84.4599L14.6199 81.9599L14.6799 84.4599C14.7199 85.8399 14.7599 86.9799 14.7699 86.9999C14.7799 87.0199 15.0499 87.0199 15.3499 86.9999L15.9099 86.9599L15.9399 83.9699C15.9599 81.8599 15.9299 80.9299 15.8299 80.8099C15.6199 80.5499 14.2899 80.5999 14.0499 80.8699C13.9499 80.9899 13.5299 81.9599 13.1299 83.0199C12.7299 84.0799 12.3699 84.9899 12.3299 85.0399C12.2899 85.0899 11.9399 84.2399 11.5499 83.1599C11.1599 82.0599 10.7299 81.0799 10.5799 80.9299C10.3699 80.7199 10.1899 80.6599 9.62995 80.6599C9.25995 80.6599 8.85995 80.7299 8.74995 80.8099ZM20.87 82.3099C20.01 82.5899 19.4999 83.4799 19.4999 84.7299C19.4999 86.1299 20.0299 86.8899 21.1499 87.0799C21.6599 87.1699 22.5299 86.9699 22.8299 86.6999C23.0299 86.5199 23.1199 85.8499 22.9599 85.6999C22.9199 85.6599 22.6999 85.7299 22.4699 85.8599C21.6199 86.3199 20.99 86.0599 20.79 85.1699C20.66 84.5799 20.8 83.8199 21.11 83.4899C21.36 83.2199 21.9799 83.1999 22.4599 83.4499C22.9099 83.6799 23.04 83.5999 23.04 83.0799C23.04 82.7899 22.9699 82.6299 22.7599 82.4999C22.3999 82.2499 21.34 82.1599 20.87 82.3099ZM25.4599 82.5499C25.0499 82.9099 25.0499 82.9099 25.0099 82.6399C24.9799 82.4099 24.8999 82.3599 24.4699 82.3299L23.9699 82.2899V87.0099H25.1499V85.5499C25.1499 84.0899 25.1499 84.0899 25.4999 83.7099C25.7899 83.3999 25.9199 83.3399 26.2699 83.3799C26.7099 83.4299 26.7999 83.3299 26.7999 82.7799C26.7999 82.0999 26.1199 81.9799 25.4599 82.5499ZM28.7199 82.3299C27.7699 82.6099 27.1899 83.7199 27.3099 85.0299C27.4199 86.2399 28.0399 86.9299 29.1599 87.0899C31.1399 87.3599 32.4299 85.7399 31.8699 83.6999C31.5299 82.4999 30.1699 81.8999 28.7199 82.3299ZM30.0999 83.2499C30.7199 83.5799 30.8799 85.0199 30.3699 85.6999C30.0499 86.1199 29.3399 86.1999 28.9099 85.8599C28.6499 85.6499 28.6299 85.5499 28.6299 84.6699C28.6299 83.7599 28.6499 83.6899 28.9599 83.4199C29.2999 83.1199 29.7399 83.0599 30.0999 83.2499ZM33.58 82.3599C32.98 82.6199 32.7599 82.9699 32.7599 83.6199C32.7599 84.3199 32.9799 84.5799 34.0299 85.0799C34.6299 85.3699 34.7599 85.4799 34.7599 85.7299C34.7599 85.9399 34.6699 86.0599 34.4299 86.1399C34.1299 86.2399 33.85 86.1899 32.9 85.8899C32.72 85.8299 32.6899 85.8799 32.7199 86.2799C32.7499 86.6599 32.8199 86.7699 33.1099 86.9099C33.5999 87.1499 34.7799 87.1299 35.2699 86.8699C35.9799 86.4899 36.1999 85.3399 35.6799 84.7599C35.5599 84.6299 35.1299 84.3599 34.6999 84.1599C33.9199 83.7899 33.7299 83.5199 33.9999 83.1999C34.1799 82.9899 34.71 82.9899 35.24 83.2099C35.59 83.3599 35.6599 83.3599 35.7199 83.2199C35.8399 82.8999 35.6999 82.5199 35.4099 82.3699C35.0199 82.1599 34.02 82.1599 33.58 82.3599ZM38.3499 82.2799C37.3099 82.6499 36.84 83.2799 36.74 84.3999C36.62 85.7799 37.1199 86.6599 38.1999 86.9799C40.0099 87.5099 41.42 86.4599 41.41 84.5899C41.4 83.4599 40.8899 82.6299 40.0099 82.3299C39.5999 82.1899 38.6699 82.1599 38.3499 82.2799ZM39.72 83.4199C40.03 83.6799 40.0499 83.7599 40.0499 84.5899C40.0499 85.3699 40.0199 85.5099 39.7599 85.7799C39.3899 86.1699 38.6899 86.1999 38.3399 85.8499C38.0399 85.5499 37.9499 85.1599 38.0199 84.3499C38.0599 83.8199 38.1399 83.6399 38.3899 83.4099C38.8099 83.0499 39.3 83.0599 39.72 83.4199ZM17.29 84.6299L17.3199 86.9699H18.4999V82.3699L17.8799 82.3399L17.2599 82.2999L17.29 84.6299ZM11.6599 89.9099C10.1499 90.2399 9.00995 91.0699 8.40995 92.2999C8.03995 93.0499 8.01995 93.1599 8.01995 94.3799C8.01995 95.5599 8.04995 95.7399 8.33995 96.3399C8.96995 97.6299 10.1299 98.5399 12.5499 99.6399C15.1899 100.84 15.9099 101.58 15.9099 103.11C15.9099 104.5 15.2599 105.33 13.8299 105.77C12.4099 106.21 10.9899 106 9.14995 105.08C8.53995 104.77 7.98995 104.5 7.94995 104.48C7.89995 104.46 7.78995 104.53 7.67995 104.63C7.45995 104.86 7.41995 106 7.62995 106.38C8.06995 107.21 10.3799 107.98 12.3899 107.98C16.1699 107.98 18.6099 105.73 18.4099 102.42C18.3699 101.7 18.2799 101.35 17.9799 100.75C17.3899 99.5599 16.6299 98.9399 14.3199 97.8099C13.2499 97.2899 12.0799 96.6599 11.7099 96.4099C10.2499 95.4299 9.90995 93.7599 10.9399 92.5999C11.5099 91.9499 12.0899 91.7399 13.2799 91.7299C14.4099 91.7299 14.8699 91.8499 16.1699 92.5099C17.2899 93.0799 17.3899 93.0299 17.3899 91.9199C17.3899 90.9199 17.3299 90.8299 16.3099 90.3599C14.9599 89.7699 13.1499 89.5899 11.6599 89.9099ZM27.4199 89.8399C25.1899 90.1999 23.4699 91.2799 22.3199 93.0499C21.7399 93.9499 21.42 94.7899 21.12 96.2099C20.79 97.7599 20.8699 101.21 21.2599 102.63C22.2199 106.12 24.3699 107.8 28.0499 107.96C29.9899 108.04 30.7399 107.9 32.6399 107.09C32.7099 107.06 33.0299 107.26 33.3499 107.53C34.5699 108.59 37.2499 110.11 38.1899 110.29C38.7699 110.4 38.9299 110.21 38.9299 109.39C38.9299 109.01 38.8999 108.62 38.8599 108.51C38.8199 108.4 38.2599 108.05 37.5999 107.72C36.5899 107.22 34.5699 105.92 34.5699 105.77C34.5699 105.74 34.7599 105.48 34.9799 105.18C35.9299 103.94 36.4999 102.21 36.6999 99.9699C36.8499 98.2599 36.7099 96.4299 36.3199 95.0099C35.6099 92.4399 33.8799 90.6699 31.4399 90.0099C30.6299 89.8099 28.3099 89.6999 27.4199 89.8399ZM30.9599 92.0899C32.3599 92.6099 33.29 93.6699 33.83 95.3199C34.1 96.1499 34.1499 96.5299 34.1999 98.2899C34.2699 100.65 34.0899 101.79 33.4699 103.11C32.4799 105.23 30.3099 106.29 27.7799 105.9C24.6399 105.42 23.2599 103.05 23.4199 98.3999C23.5099 95.7299 23.9899 94.3299 25.2299 93.1499C25.9599 92.4499 26.4899 92.1399 27.3399 91.9299C28.3199 91.6699 30.0599 91.7499 30.9599 92.0899ZM59.29 89.9199C57.84 90.2699 56.61 91.1699 56.08 92.2499C55.48 93.4899 55.4599 95.2399 56.0299 96.3699C56.6999 97.6999 57.6 98.3899 60.4 99.7199C62.52 100.73 63.23 101.32 63.52 102.31C63.86 103.48 63.4199 104.7 62.4399 105.34C60.9099 106.33 58.73 106.17 56.4 104.9C55.35 104.33 55.2 104.39 55.2 105.4C55.2 106.34 55.33 106.62 55.97 106.99C57.94 108.15 61.2199 108.3 63.2599 107.34C65.7199 106.18 66.8299 103.13 65.6699 100.71C65.5199 100.4 65.1 99.8599 64.72 99.4899C64.14 98.9199 63.68 98.6399 61.74 97.6899C58.52 96.1099 57.88 95.4299 58.07 93.8199C58.17 93.0199 58.59 92.4299 59.33 92.0599C59.84 91.7999 60.12 91.7499 60.9 91.7499C62.06 91.7499 62.53 91.8699 63.7 92.4699C64.7 92.9799 64.9099 93.0199 65.0199 92.7399C65.1599 92.3899 65.0899 91.2199 64.9199 90.9699C64.6899 90.6499 63.5199 90.1299 62.5299 89.9199C61.5399 89.7099 60.18 89.6999 59.29 89.9199ZM40.9599 90.1099C40.8499 90.2199 40.82 92.2899 40.82 98.7099V107.17L41.11 107.46L41.4 107.75H45.58C48.78 107.75 49.78 107.71 49.88 107.6C50.06 107.37 50.14 106.68 50.04 106.22L49.95 105.81L46.5999 105.75L43.25 105.69L43.22 97.9199C43.2 91.8899 43.1599 90.1299 43.0499 90.0599C42.7999 89.9199 41.1199 89.9499 40.9599 90.1099ZM72.3899 94.5299C71.8199 94.6199 70.6799 95.0699 70.2099 95.3899C69.0799 96.1599 68.28 97.3899 67.83 99.0399C67.55 100.09 67.55 102.68 67.83 103.75C68.41 105.94 69.6899 107.27 71.7299 107.81C72.6199 108.04 74.8699 108.04 75.9699 107.81C77.0099 107.59 78.0899 107.19 78.2899 106.96C78.4799 106.74 78.4699 105.55 78.2799 105.36C78.1799 105.26 77.8699 105.33 77.0399 105.61C73.8499 106.69 71.39 106.22 70.44 104.35C70.16 103.8 69.9 102.7 69.9 102.08V101.75H73.9499C76.5099 101.75 78.1299 101.7 78.3599 101.62C78.8799 101.44 79.0199 100.99 78.9299 99.8299C78.7499 97.5299 77.9799 96.0899 76.4699 95.1799C75.5099 94.5999 73.7299 94.3099 72.3899 94.5299ZM74.5499 96.3799C75.7499 96.7399 76.4899 97.7599 76.5999 99.1699L76.66 99.9799H69.8799L69.9599 99.4899C70.1699 98.2699 70.68 97.3599 71.47 96.8199C72.36 96.2099 73.4699 96.0499 74.5499 96.3799ZM86.1399 94.5599C85.5799 94.7399 84.7699 95.3899 84.1899 96.1199L83.6299 96.8399L83.5699 95.7899L83.5099 94.7399L82.8099 94.6999C82.4199 94.6799 81.9899 94.6899 81.8399 94.7299L81.5699 94.7899V101.2C81.5699 106.94 81.5899 107.61 81.7599 107.68C81.9999 107.77 83.3899 107.77 83.6199 107.68C83.7899 107.62 83.8099 107.13 83.8099 103.43V99.2499L84.3299 98.5199C85.0399 97.5199 85.9599 96.7099 86.4899 96.6099C86.7699 96.5599 87.2099 96.5999 87.7299 96.7299C88.2399 96.8599 88.5799 96.8899 88.6499 96.8199C88.7099 96.7599 88.7499 96.2799 88.7299 95.7799C88.6999 94.8799 88.6799 94.8399 88.3499 94.6899C87.9399 94.4899 86.5899 94.4099 86.1399 94.5599ZM106.42 94.5699C105.49 94.7299 104.17 95.4099 103.49 96.0899C102.2 97.3799 101.66 99.1599 101.75 101.8C101.83 104.18 102.27 105.36 103.52 106.53C104.71 107.66 105.97 108.03 108.25 107.96C109.92 107.9 111.42 107.57 112.11 107.11C112.45 106.88 112.49 106.79 112.52 106.21C112.54 105.86 112.5 105.49 112.44 105.39C112.32 105.2 112.42 105.18 110.43 105.81C109.62 106.06 109.19 106.12 108.19 106.13C106.21 106.14 105.19 105.61 104.52 104.25C104.24 103.68 104.14 103.28 104.09 102.62L104.03 101.75L108.27 101.72C113.36 101.68 113.02 101.79 113.01 100.22C113 97.4599 111.81 95.5399 109.66 94.7899C108.88 94.5299 107.31 94.4199 106.42 94.5699ZM108.64 96.3899C109.81 96.7399 110.58 97.7799 110.74 99.2499L110.82 99.9799H104.04L104.11 99.3899C104.28 97.9499 105.27 96.7099 106.55 96.3199C107.04 96.1699 108 96.2099 108.64 96.3899ZM120.32 94.5499C119.56 94.7999 118.51 95.6799 117.93 96.5499C117.74 96.8399 117.73 96.8199 117.73 95.8999C117.73 95.3199 117.68 94.8999 117.59 94.8199C117.4 94.6299 115.94 94.6299 115.75 94.8199C115.55 95.0199 115.55 107.41 115.75 107.61C115.94 107.8 117.63 107.8 117.82 107.61C117.92 107.51 117.96 106.39 117.96 103.34V99.2099L118.4 98.5599C119.05 97.5899 119.87 96.8299 120.44 96.6599C120.93 96.5099 121.12 96.5299 122.43 96.8699C122.8 96.9699 122.91 96.7599 122.91 95.9699C122.91 95.0899 122.83 94.8499 122.46 94.6799C122.08 94.5099 120.71 94.4199 120.32 94.5499ZM88.9999 94.8599C88.8799 95.0099 89.2399 96.1099 91.0599 101.19C92.2699 104.57 93.3599 107.44 93.4799 107.57C93.9299 108.03 96.1599 107.92 96.3599 107.43C96.5099 107.04 100.64 95.5699 100.72 95.2999C100.86 94.8299 100.61 94.6899 99.5999 94.6899C99.0099 94.6899 98.6399 94.7399 98.5699 94.8399C98.5099 94.9199 97.6699 97.3099 96.7099 100.15C95.7499 102.99 94.9299 105.27 94.8799 105.21C94.8299 105.16 94.0099 102.84 93.0599 100.05C92.1099 97.2599 91.2699 94.9199 91.1999 94.8299C91.0199 94.5999 89.1799 94.6299 88.9999 94.8599Z" fill="white"/>
</svg>
