<svg width="256" height="256" viewBox="0 0 256 256" fill="none" xmlns="http://www.w3.org/2000/svg">
<g clip-path="url(#clip0_736_21)">
<path d="M196 0H60C26.8629 0 0 26.8629 0 60V196C0 229.137 26.8629 256 60 256H196C229.137 256 256 229.137 256 196V60C256 26.8629 229.137 0 196 0Z" fill="url(#paint0_linear_736_21)"/>
<path d="M11.487 129.079L61.791 149.463V163.732L2.24097 136.141V127.769L11.487 129.079ZM61.791 112.336L11.56 133.01L2.24197 134.03V125.585L61.79 98.0669L61.791 112.336ZM241.371 131.991L189.611 111.826V97.9209L251.781 125.439V133.957L241.371 131.991ZM189.611 149.754L241.517 129.152L251.781 127.623V136.068L189.611 163.659V149.754Z" fill="white"/>
<path fill-rule="evenodd" clip-rule="evenodd" d="M176.077 61.0989C175.789 65.6649 173.732 70.4329 174.305 74.8719C177.898 81.2259 185.806 82.2389 192.33 82.6749C196.85 83.4829 196.793 80.4899 196.49 77.1279L196.545 61.0039C189.722 61.0289 182.897 60.9369 176.077 61.0989ZM122.276 73.8689C111.168 75.7549 99.908 81.0629 90.667 87.4529C83.229 93.2419 97.052 98.8519 102.067 99.7899C112.157 99.9129 121.106 93.1069 127.734 86.0429C129.898 83.0729 132.601 78.5259 129.882 75.0829C127.806 73.2829 124.787 73.7189 122.276 73.8689ZM145.913 90.0239C136.78 91.7639 128.09 95.5279 120.401 100.769C114.764 102.539 110.118 108.728 117.103 111.829C124.438 117.674 132.939 116.242 139.694 112.296C145.88 108.619 152.562 104.082 155.424 97.1599C158.127 89.5769 151.153 89.2959 145.913 90.0239ZM171.822 119.407C170.121 126.511 162.967 129.741 159.161 135.37C156.049 139.476 157.49 144.313 161.033 147.545C162.758 151.122 165.782 153.121 169.025 150.014C177.377 144.336 179.687 133.276 179.34 123.693C179.957 119.735 175.416 123.313 171.822 119.407ZM140.039 132.75C128.948 134.648 117.855 140.052 108.61 146.432C101.433 152.213 114.95 157.611 120.006 158.467C130.283 158.482 139.45 151.859 145.948 144.337C148.208 141.35 150.947 135.549 146.472 133.174C144.471 132.326 142.148 132.575 140.039 132.75Z" fill="#B956A6"/>
<path fill-rule="evenodd" clip-rule="evenodd" d="M90.6669 87.4531C82.1369 90.8661 73.9089 95.0101 65.7829 99.3501C64.2729 104.965 65.484 111.918 65.093 118.075C65.063 143.391 65.0769 168.708 65.0729 194.024H83.8929C87.6929 190.446 92.453 187.827 96.5809 184.578C112.475 173.179 128.364 161.736 144.237 150.369C145.405 150.894 144.657 143.498 142.095 148.635C136.024 154.348 127.966 159.047 119.437 158.588C114.597 156.996 106.795 154.295 106.746 148.364C110.153 144.353 100.46 150.464 97.8079 151.339C89.1859 155.479 80.7679 160.102 72.1279 164.165C74.2039 161.935 78.088 159.856 80.842 157.644C100.515 143.522 120.183 129.345 139.903 115.234C143.696 112.571 147.36 109.666 151.27 107.177C151.627 108.556 152.297 100.584 149.389 105.492C143.461 111.368 135.465 115.742 127.032 115.802C122.289 114.362 112.187 110.919 114.436 104.795C115.533 102.646 104.248 109.376 109.234 105.581C114.541 101.703 119.89 97.8941 125.238 94.0561C127.939 93.8531 127.364 83.8201 123.694 90.2921C117.529 95.7091 109.429 100.665 100.938 99.4901C96.168 98.1171 90.4449 95.4581 88.7109 90.4701C88.1369 89.2721 91.9229 87.4051 90.6669 87.4531ZM126.006 93.6461C126.863 93.1521 125.533 94.9991 126.006 93.6461Z" fill="#FCCC44"/>
<path fill-rule="evenodd" clip-rule="evenodd" d="M179.899 80.7499C177.236 93.4659 174.325 106.775 171.822 119.407C179.014 128.471 179.711 113.681 180.969 109.499C183.002 100.758 185.41 94.1579 185.665 85.1079C186.205 82.0189 182.575 80.1489 179.899 80.7499ZM188.15 90.7219C188.478 90.9669 187.925 92.0249 188.15 90.7219ZM179.76 119.236C180.106 119.981 180.106 118.49 179.76 119.236Z" fill="#62777F"/>
<path fill-rule="evenodd" clip-rule="evenodd" d="M184.616 82.19C186.86 94.792 179.427 110.102 176.996 121.984C182.516 117.922 186.781 99.492 187.871 92.278C188.152 91.453 188.498 89.377 188.573 89.302C188.92 87.551 192.153 84.584 192.33 82.675C194.212 81.347 183.08 81.134 184.616 82.19ZM180.039 119.236C179.692 119.981 179.692 118.49 180.039 119.236Z" fill="#4E5E67"/>
<path fill-rule="evenodd" clip-rule="evenodd" d="M90.854 87.663C87.742 90.779 88.91 90.018 91.226 87.427L90.854 87.663ZM124.514 89.206C120.909 94.623 107.909 99.153 106.272 99.504C114.092 98.039 121.381 93.174 126.51 87.476C125.695 87.839 125.211 88.692 124.514 89.206ZM88.716 90.965C90.659 95.637 97.724 98.741 101.157 99.465C96.47 97.955 90.953 95.277 88.716 90.965ZM125.726 93.667C124.745 94.825 121.251 96.557 119.409 98.257C115.458 101.171 111.371 103.879 107.465 106.866C109.952 106.759 117.24 101.315 113.504 106.839C116.67 112.288 123.563 116.077 129.848 115.731C138.148 114.428 145.802 109.839 151.304 103.457C144.625 110.066 135.795 116.286 126.024 115.429C121.295 114.337 108.373 107.662 117.017 102.983C120.065 100.476 125.32 99.163 125.915 94.757C125.79 94.207 126.815 93.67 125.726 93.667ZM102.067 99.79C105.212 100.201 105.212 99.38 102.067 99.79ZM151.07 107.315C138.591 116.009 126.293 125.043 113.922 133.893C99.902 143.927 85.942 153.998 71.926 164.024C77.196 162.247 82.476 158.777 87.711 156.38C94.921 152.566 102.523 149.553 109.269 144.92C122.607 137.068 136.713 129.587 146.972 117.574C149.211 114.948 151.456 110.721 151.556 107.878C151.233 107.969 151.478 106.741 151.07 107.315ZM108.61 146.432C106.365 148.969 105.453 150.782 107.783 147.556C107.742 147.93 109.674 145.553 108.61 146.432ZM142.766 147.646C136.852 153.882 128.105 158.38 119.898 158.683C129.386 158.752 137.946 153.12 144.374 146.476C143.952 145.966 143.097 147.664 142.766 147.646ZM144.573 149.606C124.704 164.07 104.149 179.073 84.213 193.485C87.353 194.47 94.192 194.932 97.313 190.911C103.953 186.329 111.418 182.96 118.08 178.316C127.727 172.056 138.056 165.214 143.535 154.693C143.796 153.282 145.735 150.744 144.573 149.606ZM106.76 150.524C107.682 154.416 119.208 158.883 117.958 158.028C113.708 156.538 109.492 154.216 106.76 150.524Z" fill="#DC9624"/>
</g>
<defs>
<linearGradient id="paint0_linear_736_21" x1="0" y1="256" x2="256" y2="0" gradientUnits="userSpaceOnUse">
<stop stop-color="#DB7093"/>
<stop offset="1" stop-color="#F3B661"/>
</linearGradient>
<clipPath id="clip0_736_21">
<rect width="256" height="256" rx="128" fill="white"/>
</clipPath>
</defs>
</svg>
