<svg width="153" height="157" viewBox="0 0 153 157" fill="none" xmlns="http://www.w3.org/2000/svg">
<g clip-path="url(#clip0_54_37)">
<path d="M117.141 0H35.8594C16.0548 0 0 16.4745 0 36.7969V120.203C0 140.525 16.0548 157 35.8594 157H117.141C136.945 157 153 140.525 153 120.203V36.7969C153 16.4745 136.945 0 117.141 0Z" fill="#242938"/>
<path fill-rule="evenodd" clip-rule="evenodd" d="M49.6055 67.4609C53.1914 52.7422 62.1568 45.3828 76.5 45.3828C98.0156 45.3828 100.705 61.9414 111.463 64.7012C118.635 66.5416 124.91 63.7819 130.289 56.4219C126.704 71.14 117.738 78.5 103.395 78.5C81.8789 78.5 79.1895 61.9414 68.4316 59.1816C61.2592 57.3418 54.9844 60.1016 49.6055 67.4609ZM22.7109 100.578C26.2969 85.86 35.2617 78.5 49.6055 78.5C71.1211 78.5 73.8105 95.0586 84.5684 97.8184C91.7408 99.6588 98.0156 96.8991 103.395 89.5391C99.8092 104.257 90.8432 111.617 76.5 111.617C54.9844 111.617 52.2949 95.0586 41.5371 92.2988C34.3652 90.4584 28.0898 93.2181 22.7109 100.578Z" fill="url(#paint0_linear_54_37)"/>
</g>
<defs>
<linearGradient id="paint0_linear_54_37" x1="51.6973" y1="45.3828" x2="99.3396" y2="112.614" gradientUnits="userSpaceOnUse">
<stop stop-color="#32B1C1"/>
<stop offset="1" stop-color="#14C6B7"/>
</linearGradient>
<clipPath id="clip0_54_37">
<rect width="153" height="157" rx="76.5" fill="white"/>
</clipPath>
</defs>
</svg>
