<svg width="50" height="50" viewBox="0 0 50 50" fill="none" xmlns="http://www.w3.org/2000/svg">
<g clip-path="url(#clip0_5_153)">
<path d="M25 0C38.807 0 50 11.193 50 25C50 38.807 38.807 50 25 50C11.193 50 0 38.807 0 25C0 11.193 11.193 0 25 0Z" fill="#3178C6"/>
<path d="M27.4342 31.3891V36.2777C28.2188 36.6852 29.1465 36.9908 30.2174 37.1945C31.2885 37.3982 32.4174 37.5 33.6041 37.5C34.7605 37.5 35.8594 37.3879 36.9002 37.1639C37.941 36.9398 38.8537 36.5707 39.6381 36.0562C40.4225 35.542 41.0436 34.8697 41.5012 34.0396C41.9588 33.2096 42.1875 32.1836 42.1875 30.9613C42.1875 30.0752 42.0568 29.2986 41.7953 28.6314C41.5375 27.9703 41.1532 27.3657 40.6639 26.8518C40.1711 26.3322 39.5803 25.8664 38.8914 25.4539C38.2025 25.0414 37.4256 24.6518 36.5607 24.2852C35.9271 24.0203 35.359 23.7631 34.8561 23.5137C34.3533 23.2641 33.926 23.0096 33.5738 22.7498C33.2219 22.49 32.9504 22.215 32.7594 21.9248C32.5682 21.6346 32.4727 21.3061 32.4727 20.9395C32.4727 20.6033 32.5582 20.3004 32.7291 20.0305C32.9002 19.7605 33.1414 19.5287 33.4531 19.3352C33.765 19.1418 34.1471 18.9914 34.5996 18.8846C35.0521 18.7777 35.5551 18.7242 36.1082 18.7242C36.5105 18.7242 36.9354 18.7547 37.3828 18.816C37.8305 18.877 38.2805 18.9711 38.733 19.0984C39.1845 19.2254 39.6257 19.3863 40.0529 19.5797C40.4679 19.7662 40.8643 19.9912 41.2371 20.252V15.684C40.5029 15.3988 39.701 15.1875 38.8311 15.05C37.9611 14.9125 36.9631 14.8438 35.8367 14.8438C34.6902 14.8438 33.6041 14.9686 32.5783 15.218C31.5525 15.4676 30.65 15.8572 29.8705 16.3867C29.091 16.9164 28.4752 17.591 28.0227 18.4109C27.5701 19.2309 27.3438 20.2111 27.3438 21.352C27.3438 22.8084 27.7586 24.0508 28.5883 25.0795C29.418 26.1082 30.6775 26.9791 32.3672 27.692C32.991 27.9496 33.6096 28.2195 34.2227 28.5018C34.7957 28.7664 35.291 29.0414 35.7084 29.3266C36.1258 29.6119 36.4551 29.9225 36.6965 30.2586C36.9379 30.5947 37.0586 30.9766 37.0586 31.4043C37.0608 31.7118 36.9827 32.0146 36.8322 32.2828C36.6814 32.5527 36.4527 32.7869 36.1459 32.9855C35.8393 33.1842 35.457 33.3395 34.9994 33.4516C34.5418 33.5635 34.0063 33.6195 33.393 33.6195C32.3471 33.6195 31.3111 33.4336 30.2854 33.0619C29.2596 32.6902 28.3092 32.1326 27.4342 31.3891ZM19.0842 19.2465H25.3906V15.2344H7.8125V19.2463H14.0883V37.1094H19.084V19.2463L19.0842 19.2465Z" fill="white"/>
</g>
<defs>
<clipPath id="clip0_5_153">
<rect width="50" height="50" rx="25" fill="white"/>
</clipPath>
</defs>
</svg>
